<svg xmlns="http://www.w3.org/2000/svg" xmlns:xlink="http://www.w3.org/1999/xlink" viewBox="0 0 491.86 499.76"><defs><style>.cls-1,.cls-102,.cls-133,.cls-134,.cls-3,.cls-4,.cls-69,.cls-72,.cls-75,.cls-78{fill:none;}.cls-2,.cls-62{fill:#aee7e9;}.cls-2{opacity:0.58;}.cls-3{stroke:#e8e8e8;}.cls-133,.cls-134,.cls-3{stroke-linecap:round;stroke-linejoin:round;}.cls-133,.cls-134,.cls-3,.cls-4{stroke-width:0.78px;}.cls-4{stroke:#573b6d;}.cls-102,.cls-108,.cls-4,.cls-69,.cls-72,.cls-75,.cls-78{stroke-miterlimit:10;}.cls-136,.cls-5,.cls-7,.cls-8{fill:#00b6bc;}.cls-5{opacity:0.54;}.cls-6{fill:#fff;}.cls-7{opacity:0.63;}.cls-9{fill:#dab491;}.cls-10{clip-path:url(#clip-path);}.cls-11{fill:#12131d;}.cls-12{fill:#12131c;}.cls-13{fill:#10121a;}.cls-14{fill:#11111a;}.cls-15{fill:#0f1119;}.cls-16{fill:#101018;}.cls-17{fill:#0e0e17;}.cls-18{fill:#0e0e16;}.cls-19{fill:#0d0e16;}.cls-20{fill:#0d0e15;}.cls-21{fill:#0c0d13;}.cls-22{fill:#0a0c13;}.cls-23{clip-path:url(#clip-path-2);}.cls-24{clip-path:url(#clip-path-3);}.cls-25{clip-path:url(#clip-path-4);}.cls-26{clip-path:url(#clip-path-5);}.cls-27{fill:#2e7fa1;}.cls-28{fill:#2d7c9d;}.cls-29{fill:#2b7999;}.cls-30{fill:#2d7695;}.cls-31{fill:#2a7291;}.cls-32{fill:#2b6e8d;}.cls-33{fill:#256c88;}.cls-34{fill:#266984;}.cls-35{fill:#256680;}.cls-36{fill:#23637f;}.cls-37{fill:#9febee;}.cls-38{clip-path:url(#clip-path-6);}.cls-39{clip-path:url(#clip-path-7);}.cls-40{fill:#12161f;}.cls-41{clip-path:url(#clip-path-8);}.cls-42{clip-path:url(#clip-path-9);}.cls-43{clip-path:url(#clip-path-10);}.cls-44{clip-path:url(#clip-path-11);}.cls-45{fill:#1e536b;}.cls-46{fill:#1f556e;}.cls-47{fill:#3386ad;}.cls-48{clip-path:url(#clip-path-12);}.cls-49{fill:#1d566f;}.cls-50{fill:#205973;}.cls-51{fill:#225c77;}.cls-52{fill:#235f7b;}.cls-53{fill:url(#bg-gradient_2);}.cls-54{clip-path:url(#clip-path-13);}.cls-55{clip-path:url(#clip-path-14);}.cls-56{fill:url(#bg-gradient_2-2);}.cls-57{clip-path:url(#clip-path-15);}.cls-58{fill:url(#linear-gradient);}.cls-59{fill:url(#linear-gradient-2);}.cls-60{fill:url(#linear-gradient-3);}.cls-61{fill:url(#bg-gradient_2-3);}.cls-63{fill:url(#bg-gradient_2-4);}.cls-64{fill:url(#bg-gradient_2-5);}.cls-122,.cls-65{fill:#303293;}.cls-66,.cls-70,.cls-73,.cls-76{opacity:0.71;}.cls-66{fill:url(#bg-gradient-05_2);}.cls-67{opacity:0.51;}.cls-68{fill:url(#bg-gradient-05_2-2);}.cls-69,.cls-72{stroke-width:0.72px;}.cls-69{stroke:url(#bg-gradient-05_2-3);}.cls-70{fill:url(#bg-gradient-05_2-4);}.cls-71{fill:url(#bg-gradient-05_2-5);}.cls-72{stroke:url(#bg-gradient-05_2-6);}.cls-73{fill:url(#bg-gradient-05_2-7);}.cls-74{fill:url(#bg-gradient-05_2-8);}.cls-75,.cls-78{stroke-width:0.38px;}.cls-75{stroke:url(#bg-gradient-05_2-9);}.cls-76{fill:url(#bg-gradient-05_2-10);}.cls-77{fill:url(#bg-gradient-05_2-11);}.cls-78{stroke:url(#bg-gradient-05_2-12);}.cls-79{fill:url(#bg-gradient_2-7);}.cls-80{fill:#d3ffff;}.cls-81{fill:url(#bg-gradient_2-8);}.cls-82{fill:url(#bg-gradient_2-9);}.cls-83{fill:url(#bg-gradient_2-10);}.cls-84{fill:url(#bg-gradient_2-11);}.cls-85{fill:url(#bg-gradient_2-12);}.cls-86,.cls-98{opacity:0.5;}.cls-86{fill:url(#bg-gradient-05_2-13);}.cls-87,.cls-99{opacity:0.25;}.cls-87{fill:url(#bg-gradient-05_2-14);}.cls-100,.cls-88{opacity:0.7;}.cls-88{fill:url(#bg-gradient-05_2-15);}.cls-109,.cls-135,.cls-89{fill:#573b6d;}.cls-90{fill:#102f44;}.cls-91{fill:#85f3f6;}.cls-92{fill:#896614;}.cls-93{fill:#60d4dd;}.cls-94{fill:#113146;}.cls-95{fill:#7d6754;}.cls-96{fill:#a47a17;}.cls-97{fill:url(#bg-gradient-03_2);}.cls-98{fill:url(#bg-gradient-05_2-16);}.cls-99{fill:url(#bg-gradient-05_2-17);}.cls-100{fill:url(#bg-gradient-05_2-18);}.cls-101{fill:url(#bg-gradient-03_2-2);}.cls-102{stroke-width:0.83px;stroke:url(#bg-gradient-05_2-19);}.cls-103,.cls-124,.cls-125,.cls-126,.cls-127,.cls-128,.cls-129{opacity:0.68;}.cls-104{fill:url(#bg-gradient-05_2-20);}.cls-105{opacity:0.42;}.cls-106{fill:url(#bg-gradient-05_2-21);}.cls-107{fill:url(#bg-gradient-05_2-22);}.cls-108,.cls-112,.cls-138{fill:#85dada;}.cls-108{stroke:#85dada;stroke-width:0.29px;}.cls-109{opacity:0.4;}.cls-109,.cls-122,.cls-136,.cls-138{isolation:isolate;}.cls-110{fill:url(#bg-gradient-03_2-3);}.cls-111{opacity:0.69;}.cls-113{fill:url(#bg-gradient_2-13);}.cls-114,.cls-115,.cls-116,.cls-117,.cls-118,.cls-119{opacity:0.81;}.cls-114{fill:url(#bg-gradient-04_2);}.cls-115{fill:url(#bg-gradient-04_2-2);}.cls-116{fill:url(#bg-gradient-04_2-3);}.cls-117{fill:url(#bg-gradient-04_2-4);}.cls-118{fill:url(#bg-gradient-04_2-5);}.cls-119{fill:url(#bg-gradient-04_2-6);}.cls-120{fill:url(#bg-gradient-05_2-23);}.cls-121{fill:url(#bg-gradient-05_2-24);}.cls-122{opacity:0.27;}.cls-123{fill:url(#bg-gradient-02_2);}.cls-124{fill:url(#bg-gradient-02_2-2);}.cls-125{fill:url(#bg-gradient-02_2-3);}.cls-126{fill:url(#bg-gradient-02_2-4);}.cls-127{fill:url(#bg-gradient-02_2-5);}.cls-128{fill:url(#bg-gradient-02_2-6);}.cls-129{fill:url(#bg-gradient-02_2-7);}.cls-130{fill:url(#bg-gradient-02_2-8);}.cls-131{fill:url(#bg-gradient-02_2-9);}.cls-132{fill:url(#bg-gradient-02_2-10);}.cls-133,.cls-134{stroke:#fff;}.cls-134{stroke-dasharray:0.75 1.5;}.cls-135{opacity:0.67;}.cls-136{opacity:0.7;}.cls-137{fill:url(#bg-gradient_2-14);}.cls-138{font-size:8.91px;font-family:Orkney-Light, Orkney;}</style><clipPath id="clip-path"><path class="cls-1" d="M281.26,76.94l-1.05-.62a2.16,2.16,0,0,0,1-1.69l1.06.62A2.14,2.14,0,0,1,281.26,76.94Z"/></clipPath><clipPath id="clip-path-2"><path class="cls-1" d="M281.14,55.57a.87.87,0,0,0-.07-.39l1.06.62a1,1,0,0,1,.08.39Z"/></clipPath><clipPath id="clip-path-3"><path class="cls-1" d="M281,55l1.06.61a.56.56,0,0,1,.1.15L281,55.18A.42.42,0,0,0,281,55Z"/></clipPath><clipPath id="clip-path-4"><path class="cls-1" d="M281,55a.52.52,0,0,0-.11-.1l1.09.63.11.09-.55-.32-.26-.15-.07,0h0Z"/></clipPath><clipPath id="clip-path-5"><path class="cls-1" d="M280.84,54.94l1.09.63a.72.72,0,0,0-.71.06L280.17,55A.7.7,0,0,1,280.84,54.94Z"/></clipPath><clipPath id="clip-path-6"><path class="cls-1" d="M281.85,52.71l1.06.62a.69.69,0,0,0-.73.07l-1.07-.62A.73.73,0,0,1,281.85,52.71Z"/></clipPath><clipPath id="clip-path-7"><path class="cls-1" d="M249.8,99.06l-1.06-.62a.7.7,0,0,1-.3-.65l1.06.62A.71.71,0,0,0,249.8,99.06Z"/></clipPath><clipPath id="clip-path-8"><path class="cls-1" d="M250.28,93.57a.46.46,0,0,0,.19-.08l1.06.62-.18.08Z"/></clipPath><clipPath id="clip-path-9"><path class="cls-1" d="M250.28,93.57l1.07.62-.2,0-1.05-.62A.61.61,0,0,0,250.28,93.57Z"/></clipPath><clipPath id="clip-path-10"><path class="cls-1" d="M249.78,93.56a.58.58,0,0,0,.32.06l1.05.62a.56.56,0,0,1-.31-.06Z"/></clipPath><clipPath id="clip-path-11"><path class="cls-1" d="M250.84,94.18l-1.06-.62a.7.7,0,0,1-.29-.63l1.06.62A.71.71,0,0,0,250.84,94.18Z"/></clipPath><clipPath id="clip-path-12"><path class="cls-1" d="M250.5,74.48l-1.06-.62a2.18,2.18,0,0,1,1-1.69l1,.6A2.13,2.13,0,0,0,250.5,74.48Z"/></clipPath><linearGradient id="bg-gradient_2" x1="249.43" y1="345.17" x2="283.28" y2="345.17" gradientTransform="matrix(1, 0, 0, -1, 0, 421.37)" gradientUnits="userSpaceOnUse"><stop offset="0" stop-color="#00b6bc"/><stop offset="1" stop-color="#303293"/></linearGradient><clipPath id="clip-path-13"><path class="cls-1" d="M249.43,73.49l-1.06-.62a2.3,2.3,0,0,1,1-1.78l1.06.62A2.27,2.27,0,0,0,249.43,73.49Z"/></clipPath><clipPath id="clip-path-14"><path class="cls-1" d="M303.92,90.56v1.22a.69.69,0,0,1-.42.59V91.14A.68.68,0,0,0,303.92,90.56Z"/></clipPath><linearGradient id="bg-gradient_2-2" x1="249.29" y1="327.41" x2="303.69" y2="327.41" xlink:href="#bg-gradient_2"/><clipPath id="clip-path-15"><path class="cls-1" d="M272,109.51v1.21a2.23,2.23,0,0,1-2,0v-1.21A2.29,2.29,0,0,0,272,109.51Z"/></clipPath><linearGradient id="linear-gradient" x1="102.07" y1="294.8" x2="454.75" y2="294.8" gradientUnits="userSpaceOnUse"><stop offset="0" stop-color="#303293"/><stop offset="1" stop-color="#573b6d"/></linearGradient><linearGradient id="linear-gradient-2" x1="102.07" y1="319.99" x2="111.95" y2="319.99" xlink:href="#linear-gradient"/><linearGradient id="linear-gradient-3" x1="444.89" y1="256.57" x2="454.77" y2="256.57" xlink:href="#linear-gradient"/><linearGradient id="bg-gradient_2-3" x1="8729.04" y1="140.2" x2="9081.74" y2="140.2" gradientTransform="matrix(1, 0, 0, -1, -8626.99, 421.37)" xlink:href="#bg-gradient_2"/><linearGradient id="bg-gradient_2-4" x1="149.5" y1="337.16" x2="175.96" y2="337.16" gradientTransform="matrix(1, 0, 0, 1, 0, 0)" xlink:href="#bg-gradient_2"/><linearGradient id="bg-gradient_2-5" x1="155.36" y1="337.17" x2="170" y2="337.17" gradientTransform="matrix(1, 0, 0, 1, 0, 0)" xlink:href="#bg-gradient_2"/><linearGradient id="bg-gradient-05_2" x1="451.66" y1="299.86" x2="491.5" y2="299.86" gradientUnits="userSpaceOnUse"><stop offset="0" stop-color="#573b6d"/><stop offset="1" stop-color="#303293"/></linearGradient><linearGradient id="bg-gradient-05_2-2" x1="451.63" y1="303.37" x2="491.5" y2="303.37" xlink:href="#bg-gradient-05_2"/><linearGradient id="bg-gradient-05_2-3" x1="451.28" y1="306.9" x2="491.86" y2="306.9" xlink:href="#bg-gradient-05_2"/><linearGradient id="bg-gradient-05_2-4" x1="209.34" y1="439" x2="249.18" y2="439" xlink:href="#bg-gradient-05_2"/><linearGradient id="bg-gradient-05_2-5" x1="209.31" y1="442.51" x2="249.18" y2="442.51" xlink:href="#bg-gradient-05_2"/><linearGradient id="bg-gradient-05_2-6" x1="208.96" y1="446.03" x2="249.54" y2="446.03" xlink:href="#bg-gradient-05_2"/><linearGradient id="bg-gradient-05_2-7" x1="0.2" y1="316.39" x2="21.09" y2="316.39" xlink:href="#bg-gradient-05_2"/><linearGradient id="bg-gradient-05_2-8" x1="0.19" y1="318.23" x2="21.09" y2="318.23" xlink:href="#bg-gradient-05_2"/><linearGradient id="bg-gradient-05_2-9" x1="0" y1="320.08" x2="21.28" y2="320.08" xlink:href="#bg-gradient-05_2"/><linearGradient id="bg-gradient-05_2-10" x1="243.31" y1="175.69" x2="264.19" y2="175.69" xlink:href="#bg-gradient-05_2"/><linearGradient id="bg-gradient-05_2-11" x1="243.29" y1="177.53" x2="264.19" y2="177.53" xlink:href="#bg-gradient-05_2"/><linearGradient id="bg-gradient-05_2-12" x1="243.1" y1="179.37" x2="264.38" y2="179.37" xlink:href="#bg-gradient-05_2"/><linearGradient id="bg-gradient_2-7" x1="409.24" y1="49.61" x2="451.47" y2="49.61" xlink:href="#bg-gradient_2"/><linearGradient id="bg-gradient_2-8" x1="437.3" y1="381.73" x2="451.31" y2="381.73" gradientTransform="matrix(1, 0, 0, 1, 0, 0)" xlink:href="#bg-gradient_2"/><linearGradient id="bg-gradient_2-9" x1="409.24" y1="377.64" x2="437.27" y2="377.64" gradientTransform="matrix(1, 0, 0, 1, 0, 0)" xlink:href="#bg-gradient_2"/><linearGradient id="bg-gradient_2-10" x1="-10487.88" y1="409.18" x2="-10445.65" y2="409.18" gradientTransform="translate(-10345.18 421.37) rotate(180)" xlink:href="#bg-gradient_2"/><linearGradient id="bg-gradient_2-11" x1="-10459.82" y1="22.16" x2="-10445.81" y2="22.16" gradientTransform="matrix(-1, 0, 0, 1, -10345.18, 0)" xlink:href="#bg-gradient_2"/><linearGradient id="bg-gradient_2-12" x1="-10487.88" y1="18.07" x2="-10459.85" y2="18.07" gradientTransform="matrix(-1, 0, 0, 1, -10345.18, 0)" xlink:href="#bg-gradient_2"/><linearGradient id="bg-gradient-05_2-13" x1="58.31" y1="411.38" x2="106.8" y2="411.38" xlink:href="#bg-gradient-05_2"/><linearGradient id="bg-gradient-05_2-14" x1="58.31" y1="414.53" x2="106.8" y2="414.53" xlink:href="#bg-gradient-05_2"/><linearGradient id="bg-gradient-05_2-15" x1="58.31" y1="408.24" x2="106.8" y2="408.24" xlink:href="#bg-gradient-05_2"/><linearGradient id="bg-gradient-03_2" x1="68.81" y1="372.24" x2="96.86" y2="372.24" gradientUnits="userSpaceOnUse"><stop offset="0" stop-color="#00b6bc"/><stop offset="1" stop-color="#aee7e9"/></linearGradient><linearGradient id="bg-gradient-05_2-16" x1="-9688.68" y1="147.96" x2="-9640.19" y2="147.96" gradientTransform="matrix(-1, 0, 0, 1, -9237.54, 0)" xlink:href="#bg-gradient-05_2"/><linearGradient id="bg-gradient-05_2-17" x1="-9688.68" y1="151.1" x2="-9640.19" y2="151.1" gradientTransform="matrix(-1, 0, 0, 1, -9237.54, 0)" xlink:href="#bg-gradient-05_2"/><linearGradient id="bg-gradient-05_2-18" x1="-9688.68" y1="144.82" x2="-9640.19" y2="144.82" gradientTransform="matrix(-1, 0, 0, 1, -9237.54, 0)" xlink:href="#bg-gradient-05_2"/><linearGradient id="bg-gradient-03_2-2" x1="-9678.18" y1="108.82" x2="-9650.13" y2="108.82" gradientTransform="matrix(-1, 0, 0, 1, -9237.54, 0)" xlink:href="#bg-gradient-03_2"/><linearGradient id="bg-gradient-05_2-19" x1="257.82" y1="287.4" x2="309.51" y2="287.4" xlink:href="#bg-gradient-05_2"/><linearGradient id="bg-gradient-05_2-20" x1="257.88" y1="276.64" x2="309.42" y2="276.64" xlink:href="#bg-gradient-05_2"/><linearGradient id="bg-gradient-05_2-21" x1="257.88" y1="282.79" x2="309.42" y2="282.79" xlink:href="#bg-gradient-05_2"/><linearGradient id="bg-gradient-05_2-22" x1="257.88" y1="269.43" x2="309.42" y2="269.43" xlink:href="#bg-gradient-05_2"/><linearGradient id="bg-gradient-03_2-3" x1="176.45" y1="284.75" x2="286.44" y2="284.75" xlink:href="#bg-gradient-03_2"/><linearGradient id="bg-gradient_2-13" x1="190.36" y1="148.1" x2="205.16" y2="148.1" xlink:href="#bg-gradient_2"/><linearGradient id="bg-gradient-04_2" x1="207.63" y1="286.38" x2="259.5" y2="286.38" gradientUnits="userSpaceOnUse"><stop offset="0" stop-color="#595ba8"/><stop offset="0.63" stop-color="#3c3e99"/><stop offset="1" stop-color="#303293"/></linearGradient><linearGradient id="bg-gradient-04_2-2" x1="200.24" y1="280.41" x2="247.01" y2="280.41" xlink:href="#bg-gradient-04_2"/><linearGradient id="bg-gradient-04_2-3" x1="207.63" y1="284.66" x2="259.5" y2="284.66" xlink:href="#bg-gradient-04_2"/><linearGradient id="bg-gradient-04_2-4" x1="200.24" y1="278.69" x2="247.01" y2="278.69" xlink:href="#bg-gradient-04_2"/><linearGradient id="bg-gradient-04_2-5" x1="207.63" y1="282.51" x2="259.5" y2="282.51" xlink:href="#bg-gradient-04_2"/><linearGradient id="bg-gradient-04_2-6" x1="200.24" y1="276.54" x2="247.01" y2="276.54" xlink:href="#bg-gradient-04_2"/><linearGradient id="bg-gradient-05_2-23" x1="207.63" y1="141.44" x2="259.5" y2="141.44" gradientTransform="matrix(1, 0, 0, -1, 0, 421.37)" xlink:href="#bg-gradient-05_2"/><linearGradient id="bg-gradient-05_2-24" x1="200.24" y1="147.42" x2="247.01" y2="147.42" gradientTransform="matrix(1, 0, 0, -1, 0, 421.37)" xlink:href="#bg-gradient-05_2"/><linearGradient id="bg-gradient-02_2" x1="209.77" y1="257.63" x2="235.6" y2="257.63" gradientUnits="userSpaceOnUse"><stop offset="0" stop-color="#573b6d"/><stop offset="0.37" stop-color="#5a3e6f"/><stop offset="0.66" stop-color="#624876"/><stop offset="0.92" stop-color="#705882"/><stop offset="1" stop-color="#765f87"/></linearGradient><linearGradient id="bg-gradient-02_2-2" x1="226.13" y1="306.28" x2="251.96" y2="306.28" xlink:href="#bg-gradient-02_2"/><linearGradient id="bg-gradient-02_2-3" x1="240.34" y1="297.67" x2="266.17" y2="297.67" xlink:href="#bg-gradient-02_2"/><linearGradient id="bg-gradient-02_2-4" x1="254.54" y1="289.06" x2="280.38" y2="289.06" xlink:href="#bg-gradient-02_2"/><linearGradient id="bg-gradient-02_2-5" x1="225.7" y1="303.69" x2="251.53" y2="303.69" xlink:href="#bg-gradient-02_2"/><linearGradient id="bg-gradient-02_2-6" x1="239.91" y1="295.08" x2="265.74" y2="295.08" xlink:href="#bg-gradient-02_2"/><linearGradient id="bg-gradient-02_2-7" x1="254.11" y1="286.47" x2="279.95" y2="286.47" xlink:href="#bg-gradient-02_2"/><linearGradient id="bg-gradient-02_2-8" x1="225.7" y1="300.68" x2="251.53" y2="300.68" xlink:href="#bg-gradient-02_2"/><linearGradient id="bg-gradient-02_2-9" x1="239.91" y1="292.07" x2="265.74" y2="292.07" xlink:href="#bg-gradient-02_2"/><linearGradient id="bg-gradient-02_2-10" x1="254.11" y1="283.46" x2="279.95" y2="283.46" xlink:href="#bg-gradient-02_2"/><linearGradient id="bg-gradient_2-14" x1="270.2" y1="199.62" x2="374.41" y2="199.62" xlink:href="#bg-gradient_2"/></defs><title>Asset 1BG</title><g id="Layer_2" data-name="Layer 2"><g id="Layer_1-2" data-name="Layer 1"><polygon class="cls-2" points="254 107.33 271.04 117.07 305.12 97.49 279.56 82.73 245.48 102.41 254 107.33"/><polygon class="cls-2" points="254 110.85 271.04 120.59 305.12 101.01 279.56 86.25 245.48 105.92 254 110.85"/><polyline class="cls-3" points="379.06 356.32 108.97 200.52 39.04 160.12 220.38 56.94 333.73 122.6 362.65 105.4 489.28 178.88 447.85 202.33 483.81 222.65 350.93 300.04 486.94 378.99 279.01 499.37 11.68 345.38 135.61 273.95"/><polyline class="cls-4" points="163.88 271.15 128.93 250.79 162.54 231.25 130.49 212.49 179.74 182.01 120.33 147.61 147.69 131.2 123.94 117.11"/><line class="cls-3" x1="3.6" y1="322.25" x2="351.71" y2="121.04"/><line class="cls-3" x1="102.09" y1="380.87" x2="436.91" y2="187.48"/><line class="cls-3" x1="175.57" y1="473.89" x2="479.9" y2="298.48"/><line class="cls-3" x1="395.48" y1="424.33" x2="96.1" y2="251.58"/><line class="cls-3" x1="474.43" y1="306.29" x2="249.31" y2="175.75"/><line class="cls-3" x1="436.91" y1="187.48" x2="323.57" y2="121.82"/><line class="cls-3" x1="226.82" y1="445.24" x2="10.47" y2="319.34"/><ellipse class="cls-5" cx="220.14" cy="57.57" rx="4.54" ry="2.99"/><ellipse class="cls-5" cx="40.36" cy="159.97" rx="4.54" ry="2.99"/><ellipse class="cls-5" cx="110.71" cy="260.03" rx="4.54" ry="2.99"/><ellipse class="cls-5" cx="336.61" cy="130.27" rx="4.54" ry="2.99"/><ellipse class="cls-5" cx="481.22" cy="222.5" rx="4.54" ry="2.99"/><ellipse class="cls-5" cx="413.22" cy="336.63" rx="4.54" ry="2.99"/><polyline class="cls-4" points="397.22 209.95 436.91 187.48 400.17 166.37 430.66 148.39"/><polyline class="cls-4" points="340.94 334.24 379.06 356.32 328.51 385.97 401.73 428.23 361.09 451.68 407.99 479.04 423.34 469.14"/><polyline class="cls-4" points="109.52 376.58 135.76 361.44 152.38 370.39 160.06 365.46"/><path id="_Path_15" data-name=" Path 15" class="cls-6" d="M238.56,338.32a2.1,2.1,0,1,1,2.09,2.09h0A2.1,2.1,0,0,1,238.56,338.32Z"/><polyline class="cls-4" points="247.54 222.65 232.11 213.27 254 199.99 234.42 188.99 252.82 178.49 229.76 164.81 311.06 118.69 273.54 97.58"/><ellipse class="cls-5" cx="328.01" cy="386.66" rx="4.54" ry="2.99"/><ellipse class="cls-5" cx="205.29" cy="457.01" rx="4.54" ry="2.99"/><ellipse class="cls-5" cx="33.32" cy="333.5" rx="4.54" ry="2.99"/><ellipse class="cls-5" cx="485.91" cy="378.84" rx="4.54" ry="2.99"/><ellipse class="cls-5" cx="399.93" cy="166.22" rx="4.54" ry="2.99"/><polygon class="cls-7" points="455.6 476.56 438.77 486.47 405.11 466.67 420.95 456.76 455.6 476.56"/><polygon class="cls-2" points="455.6 479.69 438.77 489.6 405.11 469.8 420.95 459.89 455.6 479.69"/><polygon class="cls-8" points="455.6 473.44 438.77 483.34 405.11 463.54 420.95 453.64 455.6 473.44"/><polyline class="cls-4" points="116.81 372.38 109.39 376.64 161.7 406.74 139.24 418.85 153.6 427.12 131.27 439.96 88.07 415.22"/><path class="cls-9" d="M96.38,392.72h0l-.14,0Z"/><ellipse class="cls-5" cx="109.14" cy="376.49" rx="4.54" ry="2.99"/><polygon class="cls-8" points="254 103.81 271.04 113.56 305.12 93.97 279.56 79.22 245.48 98.89 254 103.81"/><g class="cls-10"><path class="cls-11" d="M281.26,76.94l-1.05-.62a1.85,1.85,0,0,0,.32-.25l1.06.62a1.59,1.59,0,0,1-.33.25"/><path class="cls-12" d="M281.59,76.68l-1.06-.62.11-.12,1.06.62-.11.12"/><path class="cls-13" d="M281.7,76.57,280.64,76l.07-.1,1.07.62-.08.09"/><path class="cls-13" d="M281.78,76.48l-1.07-.62.07-.08,1.06.61-.06.09"/><path class="cls-14" d="M281.84,76.39l-1.06-.61.06-.09,1.05.62-.05.08"/><path class="cls-15" d="M281.93,76.31l-1.06-.62.05-.09,1.06.62-.05.09"/><path class="cls-16" d="M281.93,76.22l-1.07-.62.05-.07,1.06.61,0,.08"/><path class="cls-16" d="M282,76.14l-1.07-.61.05-.09,1.06.62a.3.3,0,0,0,0,.08"/><path class="cls-17" d="M282,76.06,281,75.44v-.09L282,76l0,.09"/><path class="cls-18" d="M282.07,76,281,75.35v-.08l1.06.62,0,.08"/><path class="cls-19" d="M282.11,75.89l-1.06-.61v-.1l1.06.62v.09"/><path class="cls-20" d="M282.15,75.79l-1.07-.62a.14.14,0,0,0,0-.09l1.07.61v.1"/><path class="cls-21" d="M282.18,75.69l-1-.58a.24.24,0,0,0,0-.12l1.06.62v.11"/><path class="cls-21" d="M282.2,75.58,281.14,75v-.13l1.06.62a.29.29,0,0,1,0,.13"/><path class="cls-22" d="M282.22,75.45l-1.05-.62v-.2l1.06.62v.2"/></g><polygon class="cls-21" points="282.24 75.25 281.18 74.64 281.13 55.57 282.18 56.19 282.24 75.25"/><g class="cls-23"><path class="cls-22" d="M282.18,56.19l-1-.62a.69.69,0,0,0-.28-.63l1.07.63a.71.71,0,0,1,.28.63"/></g><g class="cls-24"><path class="cls-22" d="M282.18,56.19l-1-.62a.69.69,0,0,0-.28-.63l1.07.63a.71.71,0,0,1,.28.63"/></g><g class="cls-25"><path class="cls-22" d="M282.18,56.19l-1-.62a.69.69,0,0,0-.28-.63l1.07.63a.71.71,0,0,1,.28.63"/></g><g class="cls-26"><path class="cls-27" d="M281.2,55.62,280.14,55l.14-.07,1.06.62-.14.06"/><path class="cls-28" d="M281.34,55.57,280.28,55h.11l1.07.62h-.12"/><path class="cls-29" d="M281.46,55.52l-1.07-.61h.09l1.06.61h-.08"/><path class="cls-30" d="M281.54,55.5l-1.06-.61h.07l1.06.61h-.07"/><path class="cls-31" d="M281.61,55.49l-1.06-.61h.07l1.06.61h-.07"/><path class="cls-32" d="M281.68,55.49l-1.06-.61h.06l1.06.61h-.06"/><path class="cls-33" d="M281.74,55.5l-1.06-.61h.05l1.06.62h-.05"/><path class="cls-34" d="M281.79,55.52l-1.06-.62h0l1.07.61h-.06"/><path class="cls-35" d="M281.85,55.57,280.78,55h.05l1.1.61h-.05"/><polyline class="cls-36" points="281.89 55.55 280.83 54.94 280.84 54.94 281.89 55.56 281.89 55.55"/></g><path class="cls-37" d="M281.85,52.71l1.06.62a.69.69,0,0,0-.73.07l-1.07-.62A.73.73,0,0,1,281.85,52.71Z"/><g class="cls-38"><path class="cls-37" d="M282.18,53.4l-1.07-.62.15-.07,1.06.62-.14.07"/><path class="cls-37" d="M282.32,53.33l-1.06-.62h.12l1.06.61-.12,0"/><path class="cls-37" d="M282.44,53.28l-1.06-.61h.09l1.06.62h-.09"/><path class="cls-37" d="M282.53,53.26l-1.06-.61h.08l1.06.61h-.08"/><path class="cls-37" d="M282.61,53.22l-1.06-.61h.06l1.1.61h-.07"/><path class="cls-37" d="M282.71,53.22l-1.07-.61h.07l1.06.61h-.06"/><path class="cls-37" d="M282.71,53.26l-1.07-.61h.07l1.05.61h-.05"/><path class="cls-37" d="M282.79,53.28l-1.05-.62h.05l1.06.62h-.06"/><path class="cls-37" d="M282.85,53.3l-1.06-.62h0l1.06.62h0"/><polyline class="cls-37" points="282.9 53.32 281.84 52.7 281.85 52.71 282.9 53.33 282.9 53.32"/></g><path class="cls-37" d="M249.8,99.06l-1.06-.62a.7.7,0,0,1-.3-.65l1.06.62A.71.71,0,0,0,249.8,99.06Z"/><g class="cls-39"><path class="cls-37" d="M249.8,99.06l-1.06-.62a.7.7,0,0,1-.3-.65l1.06.62a.71.71,0,0,0,.3.65"/></g><polygon class="cls-40" points="251.53 94.11 250.47 93.49 280.21 76.32 281.26 76.94 251.53 94.11"/><g class="cls-41"><path class="cls-12" d="M251.28,94.22l-1.06-.62.12,0,1,.62-.11,0"/><path class="cls-11" d="M251.39,94.18l-1-.62.13-.07,1.06.62-.14.07"/></g><g class="cls-42"><path class="cls-13" d="M251.12,94.24l-1.05-.62h.07l1.06.62h-.08"/><path class="cls-13" d="M251.2,94.23l-1.06-.62h.08l1.06.62h-.08"/><path class="cls-12" d="M251.28,94.22l-1.06-.62.12,0,1,.62-.11,0"/></g><g class="cls-43"><polyline class="cls-18" points="250.84 94.18 249.78 93.56 249.78 93.56 250.85 94.18 250.84 94.18"/><path class="cls-17" d="M250.85,94.18l-1.07-.62h.05l1.06.62h0"/><path class="cls-16" d="M250.89,94.2l-1.06-.62h.06l1.05.61h-.05"/><path class="cls-16" d="M250.94,94.22l-1.05-.61h.05l1.06.61h-.06"/><path class="cls-15" d="M251,94.23l-1.06-.62H250l1.07.62H251"/><path class="cls-14" d="M251.06,94.24,250,93.62h.08l1.05.62h-.06"/><path class="cls-13" d="M251.12,94.24l-1.05-.62h.07l1.06.62h-.08"/></g><g class="cls-44"><path class="cls-45" d="M250.84,94.18l-1.06-.62a.7.7,0,0,1-.29-.63l1.06.62a.71.71,0,0,0,.29.63"/></g><polygon class="cls-46" points="250.56 93.55 249.49 92.93 249.44 73.87 250.5 74.48 250.56 93.55"/><polygon class="cls-47" points="251.47 72.79 250.42 72.17 280.14 55.02 281.2 55.63 251.47 72.79"/><g class="cls-48"><path class="cls-45" d="M250.5,74.48l-1.06-.62v-.19l1.05.62v.19"/><path class="cls-49" d="M250.51,74.33l-1-.62a.29.29,0,0,1,0-.13l1,.61v.14"/><path class="cls-50" d="M250.53,74.15l-1.05-.61v-.12l1.06.62v.11"/><path class="cls-51" d="M250.57,74l-1.07-.62v-.09l1.07.61a.17.17,0,0,0,0,.1"/><path class="cls-52" d="M250.6,73.94l-1.07-.61v-.09l1.07.61a.14.14,0,0,0,0,.09"/><path class="cls-36" d="M250.66,73.85l-1.06-.61v-.1l1.05.62v.09"/><path class="cls-35" d="M250.66,73.76l-1.06-.62,0-.08,1.06.61a.36.36,0,0,1,0,.09"/><path class="cls-34" d="M250.7,73.67l-1.06-.61,0-.08,1.07.62-.05.07"/><path class="cls-33" d="M250.75,73.6,249.68,73l0-.09,1.06.62,0,.09"/><path class="cls-32" d="M250.79,73.55l-1.06-.62a.35.35,0,0,1,.05-.08l1.06.62-.05.08"/><path class="cls-31" d="M250.84,73.43l-1.06-.62.1,0,1.05.61-.05.09"/><path class="cls-30" d="M250.89,73.35l-1-.58a.18.18,0,0,1,.06-.09l1.06.62-.07.08"/><path class="cls-29" d="M251,73.26l-1.06-.62.08-.1,1.06.62-.08.1"/><path class="cls-28" d="M251,73.16,250,72.54l.11-.11,1,.62-.1.11"/><path class="cls-27" d="M251.14,73.05l-1-.62a1.64,1.64,0,0,1,.33-.26l1,.6a2,2,0,0,0-.33.25"/></g><path class="cls-53" d="M282.18,53.4c.56-.33,1-.07,1,.58l.07,24.92a2.28,2.28,0,0,1-1,1.78L250.53,99c-.57.33-1,.06-1-.58l-.07-24.92a2.27,2.27,0,0,1,1-1.78Zm.06,21.88-.06-19.06c0-.62-.43-.87-1-.56L251.5,72.85a2.14,2.14,0,0,0-1,1.69l0,19.07c0,.62.45.87,1,.56L281.26,77a2.14,2.14,0,0,0,1-1.69"/><path class="cls-37" d="M281.2,55.62c.55-.3,1,0,1,.57l.06,19.06a2.14,2.14,0,0,1-1,1.69l-29.7,17.2c-.54.31-1,.06-1-.56l0-19.07a2.1,2.1,0,0,1,.91-1.74Z"/><polygon class="cls-37" points="249.49 98.41 248.44 97.79 248.37 72.87 249.43 73.49 249.49 98.41"/><polygon class="cls-37" points="250.46 71.71 249.39 71.09 281.11 52.78 282.18 53.4 250.46 71.71"/><path class="cls-37" d="M249.43,73.49l-1.06-.62a2.3,2.3,0,0,1,1-1.78l1.06.62A2.27,2.27,0,0,0,249.43,73.49Z"/><g class="cls-54"><path class="cls-37" d="M249.43,73.49l-1.06-.62a.67.67,0,0,1,0-.2l1,.61v.21"/><path class="cls-37" d="M249.44,73.28l-1.06-.61v-.15l1.06.62v.14"/><path class="cls-37" d="M249.46,73.14l-1.05-.62v-.11l1.06.61v.12"/><path class="cls-37" d="M249.49,73l-1.06-.61a.14.14,0,0,1,0-.1l1.06.61V73"/><path class="cls-37" d="M249.53,72.92l-1.06-.61V72.2l1.06.62a1,1,0,0,0,0,.1"/><path class="cls-37" d="M249.56,72.82l-1.06-.62a.36.36,0,0,1,0-.09l1.06.62v.09"/><path class="cls-37" d="M249.6,72.77l-1.06-.62v-.09l1.06.62,0,.09"/><path class="cls-37" d="M249.64,72.64,248.58,72l0-.08,1.05.62a.2.2,0,0,0,0,.08"/><path class="cls-37" d="M249.68,72.56l-1.05-.62,0-.09,1.06.62,0,.09"/><path class="cls-37" d="M249.73,72.47l-1.06-.62.06-.08,1.05.61a.41.41,0,0,1-.05.09"/><path class="cls-37" d="M249.78,72.38l-1.05-.61.05-.1,1.07.62-.07.09"/><path class="cls-37" d="M249.88,72.29l-1.07-.62.07-.09,1.07.62-.07.09"/><path class="cls-37" d="M249.92,72.2l-1.07-.62.09-.1,1.05.61-.07.11"/><path class="cls-37" d="M250,72.09l-1.05-.61.11-.12,1.06.62-.12.11"/><path class="cls-37" d="M250.11,72l-1.06-.62a2.24,2.24,0,0,1,.34-.27l1.06.62a1.27,1.27,0,0,0-.34.27"/></g><path class="cls-37" d="M303.92,90.56v1.22a.69.69,0,0,1-.42.59V91.14A.68.68,0,0,0,303.92,90.56Z"/><g class="cls-55"><path class="cls-37" d="M303.92,90.56v1.22h0V90.55"/><path class="cls-37" d="M303.92,90.57v1.22a.14.14,0,0,1,0,.09V90.65a.11.11,0,0,0,0-.08"/><path class="cls-37" d="M303.91,90.65v0"/><path class="cls-37" d="M303.88,90.75v0"/><path class="cls-37" d="M303.81,90.82V92l-.05.09V90.9a.22.22,0,0,0,.05-.08"/><path class="cls-37" d="M303.81,90.9v1.23l-.09.09V91l.09-.1"/><path class="cls-37" d="M303.7,91v1.22a.62.62,0,0,1-.18.14V91.14a1.33,1.33,0,0,0,.19-.14"/><path class="cls-37" d="M303.52,91.14v1.22h0V91.14h0"/></g><polygon class="cls-37" points="303.5 91.14 303.49 92.37 271.98 110.69 271.98 109.46 303.5 91.14"/><polygon class="cls-37" points="269.94 109.46 269.93 110.69 249.5 98.9 249.51 97.67 269.94 109.46"/><polygon class="cls-37" points="276.04 89.42 274.18 90.5 272.32 89.42 274.17 88.34 276.04 89.42"/><polygon class="cls-37" points="273.97 90.62 272.12 91.7 270.25 90.62 272.1 89.54 273.97 90.62"/><polygon class="cls-37" points="275.99 91.79 274.14 92.87 272.27 91.79 274.13 90.71 275.99 91.79"/><polygon class="cls-37" points="278.03 92.97 276.17 94.04 274.31 92.97 276.16 91.89 278.03 92.97"/><polygon class="cls-37" points="282.25 85.81 280.39 86.89 278.53 85.81 280.38 84.73 282.25 85.81"/><polygon class="cls-37" points="284.27 86.98 282.42 88.06 280.55 86.98 282.41 85.91 284.27 86.98"/><polygon class="cls-37" points="280.18 87.02 278.32 88.09 276.45 87.02 278.31 85.94 280.18 87.02"/><polygon class="cls-37" points="282.21 88.18 280.35 89.26 278.48 88.18 280.34 87.11 282.21 88.18"/><polygon class="cls-37" points="278.1 88.21 276.25 89.29 274.38 88.21 276.24 87.14 278.1 88.21"/><polygon class="cls-37" points="284.23 89.35 282.38 90.43 280.51 89.35 282.36 88.28 284.23 89.35"/><polygon class="cls-37" points="280.14 89.39 278.28 90.46 276.42 89.39 278.27 88.31 280.14 89.39"/><polygon class="cls-37" points="282.16 90.56 280.31 91.64 278.44 90.56 280.3 89.48 282.16 90.56"/><polygon class="cls-37" points="278.06 90.59 276.21 91.67 274.34 90.59 276.2 89.51 278.06 90.59"/><polygon class="cls-37" points="280.1 91.76 278.24 92.84 276.38 91.76 278.23 90.68 280.1 91.76"/><polygon class="cls-37" points="271.9 91.82 270.05 92.9 268.18 91.82 270.03 90.75 271.9 91.82"/><polygon class="cls-37" points="273.93 93 272.07 94.08 270.21 93 272.06 91.92 273.93 93"/><polygon class="cls-37" points="269.83 93.03 267.97 94.11 266.11 93.03 267.96 91.95 269.83 93.03"/><polygon class="cls-37" points="275.95 94.17 274.1 95.24 272.23 94.17 274.09 93.09 275.95 94.17"/><polygon class="cls-37" points="271.86 94.19 270.01 95.27 268.14 94.19 269.99 93.12 271.86 94.19"/><polygon class="cls-37" points="267.76 94.23 265.91 95.3 264.04 94.23 265.89 93.15 267.76 94.23"/><polygon class="cls-37" points="273.89 95.36 272.04 96.44 270.17 95.36 272.02 94.29 273.89 95.36"/><polygon class="cls-37" points="269.79 95.4 267.93 96.47 266.07 95.4 267.93 94.32 269.79 95.4"/><polygon class="cls-37" points="265.69 95.43 263.84 96.51 261.97 95.43 263.82 94.36 265.69 95.43"/><polygon class="cls-37" points="271.82 96.57 269.97 97.65 268.1 96.57 269.95 95.49 271.82 96.57"/><polygon class="cls-37" points="267.72 96.6 265.86 97.68 264 96.6 265.86 95.52 267.72 96.6"/><polygon class="cls-37" points="263.62 96.63 261.77 97.71 259.9 96.63 261.76 95.55 263.62 96.63"/><polygon class="cls-37" points="280.06 94.14 271.99 98.82 270.12 97.74 278.19 93.06 280.06 94.14"/><polygon class="cls-37" points="269.75 97.77 267.89 98.85 266.03 97.77 267.89 96.69 269.75 97.77"/><polygon class="cls-37" points="265.65 97.8 263.8 98.88 261.93 97.8 263.78 96.72 265.65 97.8"/><polygon class="cls-37" points="261.58 97.82 259.73 98.9 257.86 97.82 259.71 96.74 261.58 97.82"/><polygon class="cls-37" points="271.78 98.94 269.93 100.02 268.06 98.94 269.91 97.87 271.78 98.94"/><polygon class="cls-37" points="267.68 98.98 265.82 100.06 263.96 98.98 265.82 97.9 267.68 98.98"/><polygon class="cls-37" points="259.49 99.03 257.64 100.11 255.77 99.03 257.62 97.95 259.49 99.03"/><polygon class="cls-37" points="269.71 100.15 267.86 101.23 265.99 100.15 267.84 99.07 269.71 100.15"/><polygon class="cls-37" points="263.61 98.99 259.66 101.28 257.8 100.2 261.74 97.91 263.61 98.99"/><polygon class="cls-37" points="265.64 100.16 261.7 102.45 259.83 101.38 263.77 99.09 265.64 100.16"/><polygon class="cls-37" points="267.67 101.34 263.72 103.63 261.85 102.55 265.8 100.26 267.67 101.34"/><polygon class="cls-37" points="284.35 82.24 282.5 83.32 280.63 82.24 282.48 81.16 284.35 82.24"/><polygon class="cls-37" points="282.25 83.45 280.4 84.53 278.53 83.45 280.39 82.37 282.25 83.45"/><polygon class="cls-37" points="286.37 83.41 282.43 85.7 280.57 84.63 284.51 82.33 286.37 83.41"/><polygon class="cls-37" points="280.21 84.64 278.36 85.72 276.49 84.64 278.35 83.56 280.21 84.64"/><polygon class="cls-37" points="288.41 84.58 284.46 86.88 282.6 85.8 286.54 83.51 288.41 84.58"/><polygon class="cls-37" points="278.14 85.84 276.29 86.92 274.42 85.84 276.28 84.77 278.14 85.84"/><polygon class="cls-37" points="292.44 86.94 290.59 88.02 288.72 86.94 290.57 85.86 292.44 86.94"/><polygon class="cls-37" points="276.08 87.05 274.22 88.13 272.36 87.05 274.21 85.97 276.08 87.05"/><polygon class="cls-37" points="290.38 88.13 288.52 89.21 286.65 88.13 288.51 87.06 290.38 88.13"/><polygon class="cls-37" points="290.43 85.75 284.45 89.23 282.58 88.16 288.57 84.67 290.43 85.75"/><polygon class="cls-37" points="274.01 88.24 272.15 89.32 270.29 88.24 272.14 87.17 274.01 88.24"/><polygon class="cls-37" points="288.31 89.34 286.45 90.42 284.58 89.34 286.44 88.26 288.31 89.34"/><polygon class="cls-37" points="271.94 89.45 270.08 90.53 268.22 89.45 270.07 88.37 271.94 89.45"/><polygon class="cls-37" points="286.26 90.53 284.4 91.61 282.54 90.53 284.4 89.45 286.26 90.53"/><polygon class="cls-37" points="269.87 90.65 268.01 91.73 266.15 90.65 268 89.57 269.87 90.65"/><polygon class="cls-37" points="284.19 91.73 282.34 92.81 280.47 91.73 282.32 90.65 284.19 91.73"/><polygon class="cls-37" points="267.8 91.86 265.95 92.93 264.08 91.86 265.93 90.78 267.8 91.86"/><polygon class="cls-37" points="282.12 92.93 280.27 94.01 278.4 92.93 280.26 91.86 282.12 92.93"/><polygon class="cls-37" points="265.73 93.06 263.88 94.14 262.01 93.06 263.86 91.98 265.73 93.06"/><polygon class="cls-37" points="263.67 94.26 261.81 95.33 259.94 94.26 261.8 93.18 263.67 94.26"/><polygon class="cls-37" points="261.6 95.46 259.74 96.54 257.87 95.46 259.73 94.38 261.6 95.46"/><polygon class="cls-37" points="259.56 96.65 255.61 98.94 253.74 97.87 257.69 95.57 259.56 96.65"/><path class="cls-37" d="M288.85,96.68c.61.35.62.92,0,1.27l-5.39,3.13a2.46,2.46,0,0,1-2.21,0L279,99.79a.68.68,0,0,1-.42-.87.71.71,0,0,1,.42-.41l5.39-3.13a2.46,2.46,0,0,1,2.21,0Z"/><path class="cls-56" d="M303.27,90c.57.33.57.86,0,1.18l-31.51,18.37a2.29,2.29,0,0,1-2,0l-20.43-11.8,33.56-19.54Zm-19.78,11.13L288.88,98c.61-.35.6-.92,0-1.28l-2.26-1.3a2.48,2.48,0,0,0-2.22,0L279,98.52a.67.67,0,0,0-.41.86.68.68,0,0,0,.41.42l2.23,1.29a2.46,2.46,0,0,0,2.21,0m-11.72-2.28,8.06-4.69-1.83-1-8.06,4.69,1.86,1.08m12.46-9.59,6-3.48-1.87-1.08-6,3.48,1.86,1.08m0-2.35,3.95-2.3-1.87-1.07-3.9,2.29,1.86,1.08m-2-1.17,3.91-2.29-1.87-1.13-3.91,2.29,1.87,1.08m-22.77,15.58L263.37,99l-1.87-1.08-3.95,2.29,1.87,1.08m4.06,2.35,3.95-2.29-1.87-1.08-3.91,2.29,1.86,1.08m-2-1.18,3.9-2.29-1.86-1.07-3.94,2.29,1.86,1.07m-6.09-3.51,3.91-2.29-1.87-1.08-3.94,2.3,1.87,1.07m30.84-8.52L288,89.34l-1.86-1.08-1.86,1.08,1.87,1.08m2.07-1.21,1.85-1.08-1.86-1.07-1.86,1.07,1.87,1.08m-8.13-2.34L282,85.79l-1.87-1.08-1.86,1.08,1.87,1.08m-22.7,13.26,1.85-1.1L257.39,98,255.54,99l1.86,1.08m20.69-12L279.94,87l-1.87-1.08L276.22,87l1.87,1.08m4.09,0L284,87l-1.86-1.08L280.36,87l1.87,1.07m2,3.55,1.86-1.08-1.87-1.08-1.85,1.08,1.86,1.08m-14.4,3.66,1.85-1.07-1.91-1.11-1.85,1.08,1.87,1.07m-2-1.16L269.61,93l-1.87-1.08L265.89,93l1.86,1.08m12.37-4.85L282,88.15l-1.87-1.07-1.85,1.07,1.86,1.08m-8.31,7.18,1.85-1.08-1.9-1-1.85,1.07,1.87,1.08m10.34-6L284,89.35l-1.86-1.07-1.86,1.07,1.87,1.08m-20.61,7.28,1.86-1.08-1.87-1.08-1.85,1.08,1.86,1.08m10.35-6,1.85-1.08-1.87-1.08L270,90.62l1.87,1.08m-8.28,4.81,1.85-1.08-1.86-1.08-1.83,1.09,1.87,1.07m4,4.69,1.85-1.07-1.86-1.08-1.86,1.08,1.87,1.07m2.07-1.2,1.85-1.08-1.86-1.08L267.86,99l1.86,1.07m-6.12-1.14,1.85-1.08-1.87-1.07-1.88,1,1.87,1.08m2.07-1.2,1.86-1.08-1.87-1.08-1.85,1.08,1.86,1.08M274,90.47l1.85-1.08L274,88.31l-1.86,1.08L274,90.47M280,94l1.89-1.06-1.86-1.07-1.86,1.07L280.07,94m-12.33,2.46,1.86-1.07-1.87-1.07-1.89,1.11,1.87,1.07m22.67-8.45L292.23,87l-1.86-1.08L288.51,87l1.87,1.08M274,92.91l1.86-1.08-1.91-1.08-1.86,1.07,1.86,1.08M276,91.7l1.85-1.08L276,89.54l-1.87,1L276,91.67m-10.3,3.63,1.85-1.07-1.87-1.08-1.85,1.08,1.87,1.07M275.94,94,277.79,93l-1.87-1.08L274.11,93,276,94m-8.28,4.81,1.85-1.08-1.86-1.08-1.89,1.09,1.87,1.08m-2.07,1.2L267.46,99l-1.87-1.07L263.74,99l1.86,1.08m4.14-2.4,1.85-1.08-1.87-1.08-1.86,1.07,1.86,1.08m8.3-4.81,1.85-1.08L278,90.68l-1.85,1.08L278,92.84m0-2.34,1.86-1.08L278,88.31l-1.85,1.08L278,90.46M265.7,92.93l1.85-1.07-1.84-1.11-1.86,1.07,1.87,1.08m16.42-.12L284,91.7l-1.87-1.08-1.85,1.08,1.87,1.08M271.87,94,273.73,93l-1.87-1.08L270,93,271.87,94m4.18-4.78,1.85-1.08L276,87.11l-1.86,1.07,1.87,1.08m-6.21,3.61,1.85-1.08-1.88-1L268,91.82l1.87,1.08m6.25-6,1.86-1.08-1.87-1.07-1.86,1.07,1.87,1.08m2.07-1.2L280,84.64l-1.86-1.08-1.87,1.08,1.87,1.08m2-1.19L282,83.45l-1.86-1.08-1.86,1.08,1.86,1.08m-.09,7.11L282,90.56l-1.87-1.08-1.86,1.08,1.87,1.08m-6.21,3.6,1.86-1.07-1.87-1.08L272,94.17l1.86,1.07m8.4-11.92,1.85-1.08-1.87-1.08-1.85,1.08,1.87,1.08m-12.41,7.21,1.85-1.08-1.86-1L268,89.48l1.87,1.08m-10.34,6,1.85-1.13-1.87-1.08-1.85,1.08,1.87,1.07m2.07-1.2,1.85-1.07-1.84-1.06-1.85,1.08,1.87,1.07m-2.09,3.57,1.85-1.08-1.86-1.08-1.86,1.08,1.87,1.08m4.15-4.76,1.83-1L263.65,92l-1.87,1.08,1.87,1.08m8.28-4.82,1.85-1.07-1.87-1.08-1.85,1.08,1.87,1.07m-4.14,2.41,1.86-1.08-1.87-1.08-1.85,1.08,1.86,1.08M274,88.15l1.85-1.07L274,86l-1.85,1.08L274,88.15"/><path class="cls-37" d="M272,109.51v1.21a2.23,2.23,0,0,1-2,0v-1.21A2.29,2.29,0,0,0,272,109.51Z"/><g class="cls-57"><path class="cls-37" d="M272,109.51v1.21a1.48,1.48,0,0,1-.31.15v-1.23a1.79,1.79,0,0,0,.32-.13"/><path class="cls-37" d="M271.66,109.6v1.23l-.27.07v-1.23l.27-.07"/><path class="cls-37" d="M271.39,109.67v1.23h-.19v-1.23h.19"/><path class="cls-37" d="M271.2,109.69v1.23H271v-1.23h.15"/><path class="cls-37" d="M271.05,109.71v1.23h-.15v-1.23h.15"/><path class="cls-37" d="M270.9,109.71v1.23h-.15v-1.23h.14"/><path class="cls-37" d="M270.76,109.7v1.23h-.14V109.7h.14"/><path class="cls-37" d="M270.62,109.69v1.22h-.15v-1.25h.15"/><path class="cls-37" d="M270.47,109.66v1.22h-.15v-1.23h.15"/><path class="cls-37" d="M270.32,109.62v1.23l-.18-.06v-1.23l.17.06"/><path class="cls-37" d="M270.15,109.56v1.23l-.21-.1v-1.18l.21.09"/></g><path class="cls-58" d="M454.73,263.85a11,11,0,0,1-1.46,4.73,10.86,10.86,0,0,1-4,4L238,395.55a27.39,27.39,0,0,1-27.46,0l-103-59.45a10.93,10.93,0,0,1-5.45-9.32h0v-.52a10.62,10.62,0,0,1,1.46-5.12,10.94,10.94,0,0,1,4-4L112,314.6,322.67,193.28a22,22,0,0,1,21.89,0l100.33,57.81,4.39,2.53A10.92,10.92,0,0,1,454.73,263.85Z"/><path class="cls-59" d="M112,313.72v.88l-4.41,2.53a10.94,10.94,0,0,0-4,4,10.62,10.62,0,0,0-1.46,5.12V313.72Z"/><path class="cls-60" d="M454.77,249.28v14.57h0a10.92,10.92,0,0,0-5.45-10.23l-4.39-2.53v-1.81Z"/><path id="_Path_2" data-name=" Path 2" class="cls-61" d="M238,381.92a27.44,27.44,0,0,1-27.46,0l-103-59.45a11,11,0,0,1-4-15,11.07,11.07,0,0,1,4-4L322.68,179.65a22,22,0,0,1,21.88,0L449.28,240a11,11,0,0,1,0,19Z"/><polygon id="_Path_3" data-name=" Path 3" class="cls-62" points="128.93 300.38 311.46 194.72 427.91 261.95 245.38 367.63 128.93 300.38"/><g id="_Group_2" data-name=" Group 2"><ellipse id="_Path_4" data-name=" Path 4" class="cls-63" cx="162.73" cy="337.16" rx="13.23" ry="7.65"/><ellipse id="_Path_5" data-name=" Path 5" class="cls-64" cx="162.68" cy="337.17" rx="7.32" ry="4.23"/><ellipse id="_Path_6" data-name=" Path 6" class="cls-63" cx="162.73" cy="337.16" rx="13.23" ry="7.65"/></g><g id="_Group_3" data-name=" Group 3"><path id="_Path_7" data-name=" Path 7" class="cls-65" d="M355.57,200a2.06,2.06,0,0,1,1.1-.31,2.17,2.17,0,0,1,1.11.29l41.54,23.95a1.08,1.08,0,0,1,.55.94,1.15,1.15,0,0,1-.55,1l-3,1.76a3.35,3.35,0,0,1-3.3,0l-40.56-23.82a1.07,1.07,0,0,1-.55-.93,1.14,1.14,0,0,1,.53-1Z"/><path id="_Path_8" data-name=" Path 8" class="cls-65" d="M355.57,200a2.06,2.06,0,0,1,1.1-.31,2.17,2.17,0,0,1,1.11.29l41.54,23.95a1.08,1.08,0,0,1,.55.94,1.15,1.15,0,0,1-.55,1l-3,1.76a3.35,3.35,0,0,1-3.3,0l-40.56-23.82a1.07,1.07,0,0,1-.55-.93,1.14,1.14,0,0,1,.53-1Z"/></g><g id="_Group_4" data-name=" Group 4"><g id="_Group_5" data-name=" Group 5"><g id="_Group_6" data-name=" Group 6"><g id="_Group_7" data-name=" Group 7"><ellipse id="_Path_9" data-name=" Path 9" class="cls-65" cx="344.93" cy="196.58" rx="5.18" ry="2.99"/></g><g id="_Group_8" data-name=" Group 8"><g id="_Group_9" data-name=" Group 9"><path class="cls-65" d="M343.15,195.56a3.67,3.67,0,0,1,3.55,0c1,.59,1.12,1.41,0,2.07a3.52,3.52,0,0,1-3.55,0C342,197,342,196.21,343.15,195.56Z"/></g></g><g id="_Group_10" data-name=" Group 10"><g id="_Group_11" data-name=" Group 11"><path class="cls-65" d="M343.84,196a2.16,2.16,0,0,1,2.12,0c.59.34.65.83,0,1.22a2.16,2.16,0,0,1-2.12,0C343.15,196.82,343.15,196.38,343.84,196Z"/></g></g></g><ellipse id="_Path_10" data-name=" Path 10" class="cls-65" cx="344.84" cy="196.61" rx="5.18" ry="2.99"/></g><g id="_Group_12" data-name=" Group 12"><g id="_Group_13" data-name=" Group 13"><g id="_Group_14" data-name=" Group 14"><g id="_Group_15" data-name=" Group 15"><path id="_Path_11" data-name=" Path 11" class="cls-65" d="M335.17,191a3.62,3.62,0,0,1,3.55,0c1,.59,1.12,1.49,0,2.07a3.48,3.48,0,0,1-3.55,0C334,192.37,334,191.61,335.17,191Z"/></g><g id="_Group_16" data-name=" Group 16"><g id="_Group_17" data-name=" Group 17"><path class="cls-65" d="M336.08,191.49a1.81,1.81,0,0,1,1.72,0c.51.3.55.69,0,1a1.62,1.62,0,0,1-1.72,0C335.52,192.18,335.52,191.82,336.08,191.49Z"/></g></g><g id="_Group_18" data-name=" Group 18"><g id="_Group_19" data-name=" Group 19"><path class="cls-65" d="M336.42,191.7a1.08,1.08,0,0,1,1,0c.3.18.32.4,0,.6a1,1,0,0,1-1,0Q335.92,192,336.42,191.7Z"/></g></g></g></g><path id="_Path_12" data-name=" Path 12" class="cls-65" d="M338.68,191a3.64,3.64,0,0,0-3.56,0c-1.13.65-1.13,1.49,0,2.07a3.49,3.49,0,0,0,3.56,0C339.84,192.37,339.75,191.55,338.68,191Z"/></g><g id="_Group_20" data-name=" Group 20"><path id="_Path_13" data-name=" Path 13" class="cls-65" d="M408.11,231.14a.64.64,0,0,0-.1-.26l-.09-.14a2.14,2.14,0,0,0-.42-.37l-.18-.12a3.51,3.51,0,0,0-.85-.34,3.57,3.57,0,0,0-.92-.12h-.47a4.07,4.07,0,0,0-.91.31l-.43.21c-.73.42-1,.88-.82,1.33a1.85,1.85,0,0,0,.82.77,3.93,3.93,0,0,0,.87.37l.47.09a3.59,3.59,0,0,0,2.27-.46c.57-.33.82-.7.82-1.07C408.13,231.23,408.13,231.19,408.11,231.14Z"/><path id="_Path_14" data-name=" Path 14" class="cls-65" d="M408.11,231.14a.64.64,0,0,0-.1-.26l-.09-.14a2.14,2.14,0,0,0-.42-.37l-.18-.12a3.51,3.51,0,0,0-.85-.34,3.57,3.57,0,0,0-.92-.12h-.47a4.07,4.07,0,0,0-.91.31l-.43.21c-.73.42-1,.88-.82,1.33a1.85,1.85,0,0,0,.82.77,3.93,3.93,0,0,0,.87.37l.47.09a3.59,3.59,0,0,0,2.27-.46c.57-.33.82-.7.82-1.07C408.13,231.23,408.13,231.19,408.11,231.14Z"/></g></g><path class="cls-66" d="M485.64,291.78c7.77,4.46,7.84,11.73.08,16.17s-20.37,4.46-28.18,0-7.84-11.71-.08-16.17S477.83,287.31,485.64,291.78Z"/><g class="cls-67"><path class="cls-68" d="M485.64,295.27c7.77,4.46,7.84,11.7.08,16.19s-20.37,4.44-28.2,0-7.84-11.69-.08-16.17S477.83,290.8,485.64,295.27Z"/></g><g class="cls-67"><path class="cls-69" d="M485.64,298.79c7.77,4.46,7.84,11.71.08,16.2s-20.37,4.43-28.2,0-7.84-11.7-.08-16.17S477.83,294.33,485.64,298.79Z"/></g><g id="_7Si8S5.tif-2" data-name=" 7Si8S5.tif-2"><path class="cls-62" d="M476,305.66l-2.26-1.44-4.35,1.86-1.21-1.22,1.51-.64c.61-.28.72-.5.31-.72L464,299.72a2.17,2.17,0,0,0-1.94,0c-.53.2-1,.43-1.57.67l-1.44-.93,4.31-1.84-2.24-1.43,2.15-.92,2.15,1.37,1.76-.71-2.15-1.38,2.15-.92,2.2,1.44c.89-.28,1.71-.56,2.58-.79a8,8,0,0,1,4.48-.19c1.44.48,2.15,1.31,1.15,2.35a.14.14,0,0,0,0,.09c.52-.12,1-.24,1.52-.32a5.48,5.48,0,0,1,3.37.29,4.18,4.18,0,0,1,1.33,1c.83,1,0,2-1.64,2.93-.72.43-1.52.83-2.35,1.28l2.23,1.44-2.16.92-2.21-1.43-1.73.71,2.21,1.44Zm-1.68-3.45c.87-.37,1.74-.71,2.51-1.08a13.88,13.88,0,0,0,1.89-1.13c.49-.35.71-.71.45-1.09-.41-.59-1.64-.72-3.24-.34a25.92,25.92,0,0,0-4.59,1.73Zm-7.09-4.53,2.77,1.76c.92-.43,1.84-.83,2.67-1.27a4.65,4.65,0,0,0,1.08-.8c.37-.35.34-.67-.05-.93a3.28,3.28,0,0,0-2.71-.18,21.89,21.89,0,0,0-3.76,1.43Z"/></g><path class="cls-70" d="M243.32,430.92c7.77,4.46,7.84,11.72.08,16.17s-20.37,4.46-28.18,0-7.84-11.71-.08-16.17S235.51,426.45,243.32,430.92Z"/><g class="cls-67"><path class="cls-71" d="M243.32,434.4c7.77,4.47,7.84,11.71.08,16.2s-20.37,4.44-28.2,0-7.84-11.7-.08-16.17S235.51,429.94,243.32,434.4Z"/></g><g class="cls-67"><path class="cls-72" d="M243.32,437.93c7.77,4.46,7.84,11.7.08,16.2s-20.37,4.43-28.2,0-7.84-11.7-.08-16.17S235.51,433.46,243.32,437.93Z"/></g><g id="_7Si8S5.tif-2-2" data-name=" 7Si8S5.tif-2"><path class="cls-62" d="M233.63,444.8l-2.26-1.44L227,445.22,225.81,444c.52-.22,1-.43,1.51-.65s.72-.49.31-.71c-2-1.27-3.94-2.52-5.92-3.78a2.15,2.15,0,0,0-1.93,0c-.54.21-1,.44-1.58.68l-1.44-.93,4.31-1.84-2.24-1.44,2.15-.92,2.15,1.38,1.76-.71-2.15-1.38,2.15-.92,2.2,1.43c.89-.27,1.71-.56,2.58-.79a8.13,8.13,0,0,1,4.48-.18c1.44.48,2.15,1.3,1.15,2.35a.14.14,0,0,0,0,.09c.52-.12,1-.24,1.52-.32a5.48,5.48,0,0,1,3.37.29,4.18,4.18,0,0,1,1.33,1c.83,1,0,2-1.64,2.93-.72.43-1.52.83-2.35,1.28l2.23,1.43-2.16.93-2.21-1.44-1.73.72,2.21,1.44ZM232,441.35c.87-.37,1.74-.72,2.51-1.08a15,15,0,0,0,1.89-1.13c.49-.35.71-.72.45-1.09-.41-.59-1.64-.72-3.24-.34a25.92,25.92,0,0,0-4.59,1.73Zm-7.09-4.53,2.77,1.76c.92-.43,1.84-.83,2.67-1.27a5.3,5.3,0,0,0,1.08-.8c.37-.35.34-.67,0-.94a3.36,3.36,0,0,0-2.71-.18,21.13,21.13,0,0,0-3.76,1.44Z"/></g><path class="cls-73" d="M18,312.15c4.08,2.34,4.11,6.15,0,8.48a16.45,16.45,0,0,1-14.77,0c-4.1-2.34-4.12-6.14,0-8.48A16.42,16.42,0,0,1,18,312.15Z"/><g class="cls-67"><path class="cls-74" d="M18,314c4.08,2.34,4.11,6.14,0,8.49s-10.68,2.33-14.78,0-4.12-6.13,0-8.48A16.44,16.44,0,0,1,18,314Z"/></g><g class="cls-67"><path class="cls-75" d="M18,315.83c4.08,2.34,4.11,6.13,0,8.49s-10.68,2.32-14.78,0-4.12-6.13,0-8.48A16.44,16.44,0,0,1,18,315.83Z"/></g><g id="_7Si8S5.tif-2-3" data-name=" 7Si8S5.tif-2"><path class="cls-62" d="M12.94,319.43l-1.19-.75-2.28,1L8.84,319l.79-.34c.32-.14.37-.26.16-.37-1-.67-2.07-1.33-3.1-2a1.11,1.11,0,0,0-1,0l-.83.35-.75-.48,2.26-1-1.17-.75L6.3,314l1.13.72.92-.38-1.12-.72,1.12-.48,1.16.75c.46-.14.89-.29,1.35-.41a4.18,4.18,0,0,1,2.35-.1c.75.25,1.13.68.6,1.23v.05c.27-.06.53-.13.8-.17a3,3,0,0,1,1.77.15,2.32,2.32,0,0,1,.69.52c.44.51,0,1-.86,1.53-.38.23-.8.44-1.23.67l1.17.76-1.13.48-1.17-.75-.9.38,1.16.75Zm-.89-1.81c.46-.19.92-.37,1.32-.57a8.33,8.33,0,0,0,1-.59c.26-.18.38-.37.24-.57s-.86-.37-1.7-.18a13.73,13.73,0,0,0-2.41.91Zm-3.71-2.38,1.45.93c.48-.23,1-.44,1.4-.67a2.33,2.33,0,0,0,.57-.42.28.28,0,0,0,0-.49,1.79,1.79,0,0,0-1.42-.09,11.42,11.42,0,0,0-2,.75Z"/></g><path class="cls-76" d="M261.11,171.45c4.08,2.34,4.12,6.15.05,8.48a16.45,16.45,0,0,1-14.77,0c-4.1-2.34-4.11-6.14,0-8.48A16.42,16.42,0,0,1,261.11,171.45Z"/><g class="cls-67"><path class="cls-77" d="M261.11,173.28c4.08,2.34,4.12,6.13.05,8.49s-10.68,2.32-14.78,0-4.12-6.13,0-8.48A16.44,16.44,0,0,1,261.11,173.28Z"/></g><g class="cls-67"><path class="cls-78" d="M261.11,175.13c4.08,2.34,4.12,6.13.05,8.49s-10.68,2.32-14.78,0-4.12-6.14,0-8.48A16.44,16.44,0,0,1,261.11,175.13Z"/></g><g id="_7Si8S5.tif-2-4" data-name=" 7Si8S5.tif-2"><path class="cls-62" d="M256,178.73l-1.19-.76-2.28,1-.63-.64.79-.34c.32-.15.37-.26.16-.38l-3.1-2a1.15,1.15,0,0,0-1,0L248,176l-.76-.48,2.26-1-1.17-.75,1.13-.49,1.12.73.93-.38-1.13-.72,1.13-.48,1.15.75c.46-.14.9-.29,1.35-.41a4.18,4.18,0,0,1,2.35-.1c.75.25,1.13.68.6,1.23V174c.27-.06.53-.13.8-.17a2.9,2.9,0,0,1,1.77.15,2.34,2.34,0,0,1,.69.51c.44.52,0,1-.86,1.54-.37.23-.8.44-1.23.67l1.17.75-1.13.49-1.16-.75-.91.37,1.16.76Zm-.89-1.81c.46-.2.92-.38,1.32-.57a7,7,0,0,0,1-.59c.26-.18.38-.37.24-.57s-.86-.38-1.7-.18a13.73,13.73,0,0,0-2.41.91Zm-3.71-2.38,1.45.93c.48-.23,1-.44,1.4-.67a2.33,2.33,0,0,0,.57-.42.28.28,0,0,0,0-.49,1.71,1.71,0,0,0-1.42-.09,11.42,11.42,0,0,0-2,.75Z"/></g><polygon class="cls-62" points="437.27 477.11 409.24 460.93 409.24 367.75 437.27 383.94 437.27 477.11"/><polygon class="cls-8" points="422.12 406.94 417.28 404.14 417.28 392.28 422.12 395.08 422.12 406.94"/><polygon class="cls-8" points="422.12 420.34 417.28 417.55 417.28 405.69 422.12 408.49 422.12 420.34"/><polygon class="cls-8" points="417.44 378.88 422.28 381.67 422.28 393.53 417.44 390.73 417.44 378.88"/><polygon class="cls-8" points="411.87 375.64 416.71 378.43 416.71 390.29 411.87 387.5 411.87 375.64"/><polygon class="cls-8" points="416.71 391.86 416.71 403.72 411.87 400.93 411.87 389.07 416.71 391.86"/><polygon class="cls-8" points="416.71 417.15 411.87 414.35 411.87 402.49 416.71 405.29 416.71 417.15"/><polygon class="cls-8" points="422.12 447.15 417.28 444.37 417.28 432.5 422.12 435.3 422.12 447.15"/><polygon class="cls-8" points="422.12 460.56 417.28 457.77 417.28 445.91 422.12 448.7 422.12 460.56"/><polygon class="cls-8" points="417.44 419.09 422.28 421.89 422.28 433.75 417.44 430.96 417.44 419.09"/><polygon class="cls-8" points="411.87 415.92 416.71 418.71 416.71 430.57 411.87 427.78 411.87 415.92"/><polygon class="cls-8" points="416.71 444 411.87 441.21 411.87 429.35 416.71 432.14 416.71 444"/><polygon class="cls-8" points="416.71 457.43 411.87 454.63 411.87 442.77 416.71 445.56 416.71 457.43"/><polygon class="cls-8" points="433.86 413.48 429.02 410.69 429.02 398.83 433.86 401.62 433.86 413.48"/><polygon class="cls-8" points="433.86 426.89 429.02 424.1 429.02 412.23 433.86 415.03 433.86 426.89"/><polygon class="cls-8" points="429.18 385.42 434.02 388.21 434.02 400.08 429.18 397.28 429.18 385.42"/><polygon class="cls-8" points="423.6 382.18 428.44 384.98 428.44 396.83 423.6 394.05 423.6 382.18"/><polygon class="cls-8" points="428.44 398.4 428.44 410.27 423.6 407.47 423.6 395.61 428.44 398.4"/><polygon class="cls-8" points="428.44 423.69 423.6 420.89 423.6 409.04 428.44 411.83 428.44 423.69"/><polygon class="cls-8" points="433.86 453.7 429.02 450.91 429.02 439.05 433.86 441.84 433.86 453.7"/><polygon class="cls-8" points="433.86 467.11 429.02 464.32 429.02 452.45 433.86 455.25 433.86 467.11"/><polygon class="cls-8" points="429.18 425.64 434.02 428.44 434.02 440.29 429.18 437.5 429.18 425.64"/><polygon class="cls-8" points="423.6 422.46 428.44 425.26 428.44 437.12 423.6 434.33 423.6 422.46"/><polygon class="cls-8" points="428.44 450.55 423.6 447.75 423.6 435.89 428.44 438.68 428.44 450.55"/><polygon class="cls-8" points="428.44 463.97 423.6 461.18 423.6 449.32 428.44 452.11 428.44 463.97"/><polygon class="cls-79" points="451.47 375.75 423.44 359.57 409.24 367.77 437.27 383.95 451.47 375.75"/><polygon class="cls-80" points="451.31 469.06 437.3 477.15 437.3 383.98 451.31 375.89 451.31 469.06"/><polygon class="cls-65" points="439.55 414.73 444.39 411.93 444.39 400.07 439.55 402.87 439.55 414.73"/><polygon class="cls-65" points="439.55 428.13 444.39 425.34 444.39 413.48 439.55 416.28 439.55 428.13"/><polygon class="cls-65" points="444.24 386.67 439.4 389.46 439.4 401.32 444.24 398.52 444.24 386.67"/><polygon class="cls-65" points="449.81 383.43 444.97 386.22 444.97 398.08 449.81 395.29 449.81 383.43"/><polygon class="cls-65" points="444.97 399.65 444.97 411.51 449.81 408.72 449.81 396.86 444.97 399.65"/><polygon class="cls-65" points="444.97 424.94 449.81 422.14 449.81 410.28 444.97 413.08 444.97 424.94"/><polygon class="cls-65" points="439.55 454.94 444.39 452.16 444.39 440.29 439.55 443.09 439.55 454.94"/><polygon class="cls-65" points="439.55 468.36 444.39 465.56 444.39 453.7 439.55 456.49 439.55 468.36"/><polygon class="cls-65" points="444.24 426.88 439.4 429.68 439.4 441.54 444.24 438.75 444.24 426.88"/><polygon class="cls-65" points="449.81 423.71 444.97 426.5 444.97 438.36 449.81 435.57 449.81 423.71"/><polygon class="cls-65" points="444.97 451.79 449.81 449 449.81 437.14 444.97 439.93 444.97 451.79"/><polygon class="cls-65" points="444.97 465.22 449.81 462.42 449.81 450.56 444.97 453.36 444.97 465.22"/><polygon class="cls-81" points="451.31 379.49 437.3 387.58 437.3 383.98 451.31 375.89 451.31 379.49"/><polygon class="cls-82" points="437.27 387.53 409.24 371.36 409.24 367.75 437.27 383.94 437.27 387.53"/><polygon class="cls-7" points="96.34 116.99 113.17 126.9 146.84 107.1 131 97.19 96.34 116.99"/><polygon class="cls-2" points="96.34 120.12 113.17 130.03 146.84 110.22 131 100.32 96.34 120.12"/><polygon class="cls-8" points="96.34 113.87 113.17 123.77 146.84 103.97 131 94.07 96.34 113.87"/><polygon class="cls-62" points="114.68 117.54 142.7 101.36 142.7 8.18 114.68 24.36 114.68 117.54"/><polygon class="cls-8" points="129.83 47.37 134.66 44.57 134.66 32.71 129.83 35.5 129.83 47.37"/><polygon class="cls-8" points="129.83 60.77 134.66 57.98 134.66 46.12 129.83 48.91 129.83 60.77"/><polygon class="cls-8" points="134.51 19.31 129.67 22.09 129.67 33.96 134.51 31.16 134.51 19.31"/><polygon class="cls-8" points="140.08 16.07 135.24 18.86 135.24 30.72 140.08 27.93 140.08 16.07"/><polygon class="cls-8" points="135.24 32.29 135.24 44.15 140.08 41.36 140.08 29.5 135.24 32.29"/><polygon class="cls-8" points="135.24 57.58 140.08 54.78 140.08 42.92 135.24 45.72 135.24 57.58"/><polygon class="cls-8" points="129.83 87.58 134.66 84.8 134.66 72.93 129.83 75.73 129.83 87.58"/><polygon class="cls-8" points="129.83 100.99 134.66 98.2 134.66 86.33 129.83 89.13 129.83 100.99"/><polygon class="cls-8" points="134.51 59.52 129.67 62.32 129.67 74.18 134.51 71.39 134.51 59.52"/><polygon class="cls-8" points="140.08 56.35 135.24 59.14 135.24 71 140.08 68.21 140.08 56.35"/><polygon class="cls-8" points="135.24 84.43 140.08 81.64 140.08 69.77 135.24 72.57 135.24 84.43"/><polygon class="cls-8" points="135.24 97.86 140.08 95.06 140.08 83.2 135.24 85.99 135.24 97.86"/><polygon class="cls-8" points="118.08 53.91 122.93 51.11 122.93 39.26 118.08 42.05 118.08 53.91"/><polygon class="cls-8" points="118.08 67.32 122.93 64.52 122.93 52.66 118.08 55.46 118.08 67.32"/><polygon class="cls-8" points="122.77 25.85 117.93 28.64 117.93 40.51 122.77 37.71 122.77 25.85"/><polygon class="cls-8" points="128.34 22.61 123.5 25.41 123.5 37.26 128.34 34.48 128.34 22.61"/><polygon class="cls-8" points="123.5 38.83 123.5 50.7 128.34 47.9 128.34 36.04 123.5 38.83"/><polygon class="cls-8" points="123.5 64.12 128.34 61.32 128.34 49.47 123.5 52.26 123.5 64.12"/><polygon class="cls-8" points="118.08 94.13 122.93 91.34 122.93 79.47 118.08 82.27 118.08 94.13"/><polygon class="cls-8" points="118.08 107.53 122.93 104.75 122.93 92.88 118.08 95.68 118.08 107.53"/><polygon class="cls-8" points="122.77 66.07 117.93 68.87 117.93 80.72 122.77 77.93 122.77 66.07"/><polygon class="cls-8" points="128.34 62.89 123.5 65.69 123.5 77.55 128.34 74.75 128.34 62.89"/><polygon class="cls-8" points="123.5 90.97 128.34 88.18 128.34 76.32 123.5 79.11 123.5 90.97"/><polygon class="cls-8" points="123.5 104.4 128.34 101.6 128.34 89.75 123.5 92.54 123.5 104.4"/><polygon class="cls-83" points="100.48 16.18 128.51 0 142.7 8.2 114.68 24.38 100.48 16.18"/><polygon class="cls-80" points="100.64 109.49 114.65 117.58 114.65 24.41 100.64 16.32 100.64 109.49"/><polygon class="cls-65" points="112.39 55.16 107.55 52.36 107.55 40.5 112.39 43.3 112.39 55.16"/><polygon class="cls-65" points="112.39 68.56 107.55 65.77 107.55 53.91 112.39 56.7 112.39 68.56"/><polygon class="cls-65" points="107.71 27.1 112.55 29.89 112.55 41.75 107.71 38.95 107.71 27.1"/><polygon class="cls-65" points="102.14 23.85 106.98 26.65 106.98 38.51 102.14 35.72 102.14 23.85"/><polygon class="cls-65" points="106.97 40.08 106.97 51.94 102.13 49.15 102.13 37.28 106.97 40.08"/><polygon class="cls-65" points="106.97 65.37 102.13 62.57 102.13 50.71 106.97 53.51 106.97 65.37"/><polygon class="cls-65" points="112.39 95.37 107.55 92.59 107.55 80.72 112.39 83.52 112.39 95.37"/><polygon class="cls-65" points="112.39 108.78 107.55 105.99 107.55 94.13 112.39 96.92 112.39 108.78"/><polygon class="cls-65" points="107.71 67.31 112.55 70.11 112.55 81.97 107.71 79.18 107.71 67.31"/><polygon class="cls-65" points="102.14 64.14 106.98 66.93 106.98 78.79 102.14 76 102.14 64.14"/><polygon class="cls-65" points="106.97 92.22 102.13 89.43 102.13 77.56 106.97 80.36 106.97 92.22"/><polygon class="cls-65" points="106.97 105.65 102.13 102.85 102.13 90.99 106.97 93.78 106.97 105.65"/><polygon class="cls-84" points="100.64 19.92 114.65 28 114.65 24.41 100.64 16.32 100.64 19.92"/><polygon class="cls-85" points="114.68 27.96 142.7 11.79 142.7 8.18 114.68 24.36 114.68 27.96"/><polygon class="cls-86" points="58.31 421.71 64.59 425.3 106.8 401.06 99.62 397.46 58.31 421.71"/><polygon class="cls-87" points="58.31 424.85 64.59 428.45 106.8 404.2 99.62 400.61 58.31 424.85"/><polygon class="cls-88" points="58.31 418.57 64.59 422.16 106.8 397.91 99.62 394.32 58.31 418.57"/><path class="cls-89" d="M66,415.7l-5.59-3.17c-.25.81-.51,1.73-.78,2.7l5.59,3.17C65.53,417.4,65.79,416.48,66,415.7Z"/><path class="cls-9" d="M94.7,384.51h0l-.16.05Z"/><path class="cls-90" d="M81,387.42a54.91,54.91,0,0,0,5.47-5.17h0l5.11,2.81,0-4.26L97,384l.21,15.54-5.59-3.17-.12-10.38a44.62,44.62,0,0,1-5,4.65h0l-5.6-3.17Z"/><path class="cls-89" d="M80.61,392.23,75,389.06l-2,1.61,5.59,3.16,2-1.61Z"/><path class="cls-89" d="M88.23,381.61l5.59,3.17-1.79.6-5.59-3.17Z"/><path class="cls-89" d="M89,381.39l.16-.05a15.34,15.34,0,0,1,2.5-.57,5.74,5.74,0,0,1,1.31,0,7.56,7.56,0,0,1,1.34.36,13.77,13.77,0,0,1,1.56.73l5.58,3.14c-.54-.3-1.3-.63-1.55-.74a8.92,8.92,0,0,0-1.35-.35,7.06,7.06,0,0,0-1.3,0,16.58,16.58,0,0,0-2.51.57h-.23l-5.59-3.17Z"/><path class="cls-89" d="M88.23,381.61l.34-.1a19.1,19.1,0,0,1,2.87-.71L97,384a18.52,18.52,0,0,0-2.87.71l-.34.1-.49.18-5.59-3.17Z"/><polygon class="cls-91" points="92.01 385.42 86.42 382.25 85.15 382.68 90.74 385.85 92.01 385.42"/><polygon class="cls-92" points="93.51 395.27 87.92 392.1 73.97 400.36 79.56 403.53 93.51 395.27"/><path class="cls-90" d="M86.48,390.62l-5.6-3.17a26.43,26.43,0,0,1-5.66,1.74l5.58,3.16A23.72,23.72,0,0,0,86.48,390.62Z"/><polygon class="cls-91" points="82.18 390.89 76.59 387.72 75.02 389.06 80.61 392.23 82.18 390.89"/><polygon class="cls-93" points="80.61 392.23 75.02 389.06 75.22 389.19 80.8 392.36 80.61 392.23"/><polygon class="cls-94" points="79.42 393.21 73.83 390.04 73.97 400.36 79.56 403.53 79.42 393.21"/><path class="cls-62" d="M93.51,395.27l-.18-10.33.46-.16-1.8.6h0a52,52,0,0,1-5.48,5.16h-.05a25.78,25.78,0,0,1-5.68,1.73l-.19-.12-1.94,1.68.77-.63.14,10.32Z"/><polygon class="cls-95" points="90.69 382.23 85.1 379.06 76.54 384.13 82.12 387.29 90.69 382.23"/><polygon class="cls-91" points="82.12 387.29 76.54 384.13 76.59 387.72 82.18 390.89 82.12 387.29"/><path class="cls-91" d="M82.18,390.89l-1.57,1.34.19.12a23.72,23.72,0,0,0,5.68-1.73h0A52,52,0,0,0,92,385.46l-1.27.43,0-3.59-8.57,5.06Z"/><polygon class="cls-96" points="75.61 396.72 70.03 393.55 70.23 409 75.82 412.17 75.61 396.72"/><path class="cls-89" d="M73.06,390.67l.77-.63,5.59,3.17-.77.63c-.11.1-2.14,1.92-3,2.88L70,393.55C70.92,392.59,73,390.77,73.06,390.67Z"/><path class="cls-62" d="M93.33,384.94l.14,10.33-13.91,8.26-.14-10.32-.77.63c-.11.1-2.14,1.92-3,2.88l.21,15.45L97.24,399.5,97,384a18.52,18.52,0,0,0-2.87.71l-.34.1Z"/><path class="cls-89" d="M65.77,399.79c.52-1,1.39-2.38,1.66-2.82,0-.06.9-1.36,1.32-1.92s.83-1,1.28-1.5l5.58,3.17c-.47.5-.9,1-1.27,1.49s-1.28,1.9-1.32,1.9c-.26.43-1.13,1.87-1.66,2.82A71.84,71.84,0,0,0,66,415.68l-5.59-3.17A73.06,73.06,0,0,1,65.77,399.79Z"/><path class="cls-62" d="M66,415.7c-.25.81-.51,1.73-.78,2.7l10.56-6.29-.21-15.45a18.35,18.35,0,0,0-1.27,1.49c-.38.48-1.28,2-1.32,2-.26.43-1.13,1.87-1.66,2.82A72,72,0,0,0,66,415.7Z"/><path class="cls-97" d="M68.81,372.28a14.66,14.66,0,0,1,.09-1.62A3.84,3.84,0,0,1,69,370v-.13a10,10,0,0,1,.3-1.54,1.73,1.73,0,0,1,.09-.34l0-.18a11.51,11.51,0,0,1,.56-1.72.58.58,0,0,1,.12-.25.85.85,0,0,1,.09-.22,10,10,0,0,1,.48-1c.17-.3.21-.37.31-.53l.53-.84,0-.08c.36-.5.74-1,1.14-1.45l.31-.32,0-.06.17-.17.32-.31,0,0h0l.32-.29h0l.12-.12.09-.06.14-.12.23-.19.1-.07h0c.44-.33.79-.56,1.14-.79h0l.39-.21.41-.24a7.55,7.55,0,0,1,.81-.39h.08l.67-.27h0c.27-.1.5-.18.73-.24h0l.5-.14c.09,0,.53-.14,1.17-.25h.08a9.35,9.35,0,0,1,1.4-.14h1.67a4.4,4.4,0,0,1,.76.09h.23l.59.1h.12a2,2,0,0,1,.62.16h.06l.54.15a11.9,11.9,0,0,1,1.18.44h.11a9.25,9.25,0,0,1,1,.49l.17.1.61.36.08.06a7,7,0,0,1,.6.4l.26.2.52.39h0a11.94,11.94,0,0,1,1.36,1.3L93,362l.2.24.21.28.08.1a13.28,13.28,0,0,1,1.24,1.91l.16.28a15.48,15.48,0,0,1,.72,1.61h0a16.7,16.7,0,0,1,.89,2.25h0a16.64,16.64,0,0,1,.39,3.44v1.37a6.85,6.85,0,0,1-.12,1.08v.07c-.06.42-.14.85-.24,1.26a10.9,10.9,0,0,1-.3,1.11,11.84,11.84,0,0,1-.43,1.22l-.11.3a15.11,15.11,0,0,1-.9,1.8l-.12.23-.29.44-.06.09q-.29.44-.6.84h0a6,6,0,0,1-.56.67h0l-.11.13,0,0a14.53,14.53,0,0,1-1.11,1.11.81.81,0,0,0-.14.12c-.08.07-.29.25-.61.5l-.18.14-.29.21h0l-.67.45-.11.06a10.13,10.13,0,0,1-1.07.6h-.14l-.25.12-.17.07-.16.07-.33.13h0l-.18.07-.13,0-.48.16-.41.13-.28.08H86c-.28.07-.6.14-1,.2H85a11.85,11.85,0,0,1-1.89.15H82a2,2,0,0,1-.54-.05h-.33l-.8-.14h-.1a13.51,13.51,0,0,1-4.11-1.62l-.36-.24c-.41-.26-.76-.51-1.08-.76h-.07l-.37-.31-.31-.26h0l-.14-.14c-.23-.21-.43-.41-.58-.56l-.54-.48-.2-.22a11.4,11.4,0,0,1-1-1.37l-.15-.22c-.14-.25-.29-.48-.42-.71h0l-.2-.37c-.21-.42-.47-.95-.66-1.42a14.61,14.61,0,0,1-.6-1.8v-.09a7.4,7.4,0,0,1-.27-1.15v-.16c0-.12-.06-.24-.07-.37a.29.29,0,0,1,0-.14s-.06-.36-.08-.51a.14.14,0,0,0,0-.09q-.07-.87-.09-1.56v-.1A.23.23,0,0,0,68.81,372.28Z"/><path class="cls-62" d="M94.47,384.58A16.22,16.22,0,0,1,97,384l-1.2,16.31L108,393.13a12.87,12.87,0,0,0-.9-1.75,16,16,0,0,0-5.57-6.29,15,15,0,0,0-1.71-.83,8.8,8.8,0,0,0-1.34-.35,7.17,7.17,0,0,0-1.31,0,16.73,16.73,0,0,0-2.5.57H94.5Z"/><polygon class="cls-98" points="451.14 158.29 444.86 161.88 402.65 137.63 409.83 134.04 451.14 158.29"/><polygon class="cls-99" points="451.14 161.43 444.86 165.02 402.65 140.78 409.83 137.18 451.14 161.43"/><polygon class="cls-100" points="451.14 155.14 444.86 158.74 402.65 134.49 409.83 130.9 451.14 155.14"/><path class="cls-89" d="M443.41,152.28l5.59-3.17c.25.81.51,1.72.78,2.69L444.19,155C443.92,154,443.66,153.06,443.41,152.28Z"/><path class="cls-9" d="M414.75,121.08h0l.16.06Z"/><path class="cls-90" d="M428.5,124a53.82,53.82,0,0,1-5.47-5.16h0l-5.11,2.81.05-4.27-5.55,3.15-.21,15.54,5.59-3.17.12-10.37a44.54,44.54,0,0,0,5,4.64h.05l5.6-3.17Z"/><path class="cls-89" d="M428.84,128.8l5.59-3.17,2,1.61-5.59,3.16-2-1.6Z"/><path class="cls-89" d="M421.22,118.19l-5.59,3.16,1.79.6,5.59-3.17Z"/><path class="cls-89" d="M420.49,118l-.16-.06a16.7,16.7,0,0,0-2.5-.56,5.74,5.74,0,0,0-1.31,0,6.77,6.77,0,0,0-1.34.35,17.06,17.06,0,0,0-1.56.73L408,121.58c.54-.31,1.3-.63,1.55-.74a7.88,7.88,0,0,1,1.35-.35,5.65,5.65,0,0,1,1.3,0,16.55,16.55,0,0,1,2.51.56H415l5.58-3.17Z"/><path class="cls-89" d="M421.22,118.19l-.34-.11a20.39,20.39,0,0,0-2.87-.71l-5.59,3.15a18.8,18.8,0,0,1,2.87.71l.34.1.49.18,5.58-3.17Z"/><polygon class="cls-91" points="417.44 122 423.02 118.83 424.3 119.26 418.71 122.43 417.44 122"/><polygon class="cls-92" points="415.94 131.85 421.52 128.68 435.48 136.93 429.89 140.1 415.94 131.85"/><path class="cls-90" d="M423,127.2l5.6-3.17a26.26,26.26,0,0,0,5.66,1.73l-5.58,3.17A24.2,24.2,0,0,1,423,127.2Z"/><polygon class="cls-91" points="427.27 127.47 432.86 124.3 434.43 125.63 428.84 128.8 427.27 127.47"/><polygon class="cls-93" points="428.84 128.8 434.43 125.63 434.23 125.76 428.65 128.93 428.84 128.8"/><polygon class="cls-94" points="430.03 129.78 435.62 126.61 435.48 136.93 429.89 140.1 430.03 129.78"/><path class="cls-62" d="M415.94,131.85l.18-10.34-.46-.16,1.8.6h0a53,53,0,0,0,5.48,5.17H423a27.07,27.07,0,0,0,5.67,1.73l.2-.13,1.94,1.68-.77-.63-.14,10.32Z"/><polygon class="cls-95" points="418.76 118.8 424.35 115.63 432.91 120.7 427.33 123.86 418.76 118.8"/><polygon class="cls-91" points="427.33 123.86 432.91 120.7 432.86 124.3 427.27 127.47 427.33 123.86"/><path class="cls-91" d="M427.27,127.47l1.57,1.33-.19.13A24.2,24.2,0,0,1,423,127.2h-.05a53,53,0,0,1-5.48-5.17l1.27.43.05-3.59,8.57,5.07Z"/><polygon class="cls-96" points="433.84 133.29 439.42 130.12 439.22 145.58 433.63 148.75 433.84 133.29"/><path class="cls-89" d="M436.39,127.24l-.77-.63L430,129.78l.77.63c.11.1,2.14,1.92,3,2.88l5.58-3.17C438.52,129.16,436.5,127.34,436.39,127.24Z"/><path class="cls-62" d="M416.12,121.51,416,131.85l13.91,8.25.14-10.32.77.63c.11.1,2.14,1.92,3,2.88l-.21,15.46-21.42-12.67.21-15.56a18.8,18.8,0,0,1,2.87.71l.34.1Z"/><path class="cls-89" d="M443.68,136.37c-.52-1-1.39-2.38-1.66-2.82,0-.07-.9-1.37-1.32-1.93s-.83-1-1.28-1.5l-5.58,3.17c.47.51.89,1,1.27,1.49s1.28,1.91,1.32,1.91c.26.43,1.13,1.87,1.65,2.82a70.74,70.74,0,0,1,5.33,12.74l5.59-3.17A72.64,72.64,0,0,0,443.68,136.37Z"/><path class="cls-62" d="M443.41,152.28c.25.81.51,1.72.78,2.69l-10.56-6.28.21-15.46c.47.5.89,1,1.27,1.49s1.28,2,1.32,2c.26.43,1.13,1.87,1.65,2.82A71,71,0,0,1,443.41,152.28Z"/><path class="cls-101" d="M440.63,108.85a12.56,12.56,0,0,0-.08-1.62,3.72,3.72,0,0,0-.08-.66v-.13a10.11,10.11,0,0,0-.3-1.55,1.48,1.48,0,0,0-.09-.33l-.05-.18a11.64,11.64,0,0,0-.56-1.73.58.58,0,0,0-.12-.25,1,1,0,0,0-.09-.21,10.16,10.16,0,0,0-.48-1c-.17-.3-.21-.37-.31-.53l-.53-.83-.05-.09q-.54-.75-1.14-1.44l-.31-.32-.05-.07-.17-.17-.32-.3,0,0h0l-.32-.29h0l-.12-.11-.09-.06-.14-.12-.23-.19-.1-.07h0c-.44-.33-.79-.57-1.14-.79h0l-.39-.22-.41-.23a7.61,7.61,0,0,0-.81-.4H432l-.67-.27h0c-.27-.09-.5-.18-.73-.24h0l-.5-.13c-.1,0-.54-.15-1.17-.25h-.08a10.89,10.89,0,0,0-1.4-.15h-1.67A5.66,5.66,0,0,0,425,94h-.23l-.59.11h-.12a2.25,2.25,0,0,0-.62.15h-.06l-.54.15c-.4.13-.8.28-1.18.44h-.11a9.33,9.33,0,0,0-1,.5l-.17.1c-.2.11-.4.22-.61.36l-.09,0c-.21.14-.4.26-.59.4l-.26.2-.52.4h-.05a11.85,11.85,0,0,0-1.36,1.29l-.42.48-.2.24-.21.28-.09.1a14.13,14.13,0,0,0-1.23,1.91l-.16.28a15.32,15.32,0,0,0-.72,1.6h0a16.83,16.83,0,0,0-.89,2.26h0a16.56,16.56,0,0,0-.39,3.44v1.36a6.59,6.59,0,0,0,.12,1.08v.07a10.93,10.93,0,0,0,.24,1.27,10.09,10.09,0,0,0,.3,1.1,11.06,11.06,0,0,0,.43,1.22l.11.31a15.11,15.11,0,0,0,.9,1.8l.12.22.29.44.06.1a8.35,8.35,0,0,0,.6.83h0a6.13,6.13,0,0,0,.56.68h0l.1.12.05.06a14.4,14.4,0,0,0,1.11,1.1.86.86,0,0,1,.14.13c.08.06.29.25.61.49l.18.15.29.2h0c.2.15.43.3.67.45l.11.06a10.2,10.2,0,0,0,1.07.61h.14l.25.11.17.07.16.08.33.12h.05l.18.07.13,0,.48.16.41.13.28.08h.2c.28.07.6.13,1,.19h.08a13.13,13.13,0,0,0,1.88.16h1.07a1.69,1.69,0,0,0,.54-.06h.33l.8-.13h.1a13.28,13.28,0,0,0,4.11-1.63l.36-.23c.41-.26.76-.51,1.08-.76h.06l.38-.32.31-.26h0l.14-.13.58-.57.54-.48.2-.21a10.36,10.36,0,0,0,1-1.37l.16-.23c.14-.24.29-.48.42-.71h0l.2-.37c.21-.42.47-1,.66-1.42a13.93,13.93,0,0,0,.6-1.79V113a7.67,7.67,0,0,0,.27-1.15v-.16c0-.13.06-.25.07-.37a.26.26,0,0,0,0-.14s.06-.36.08-.52a.14.14,0,0,1,0-.09q.07-.85.09-1.56v-.1Z"/><path class="cls-62" d="M415,121.15a18.75,18.75,0,0,0-2.56-.63l1.2,16.31-12.16-7.13a14.17,14.17,0,0,1,.9-1.75,16.07,16.07,0,0,1,5.57-6.28,13.48,13.48,0,0,1,1.71-.83,7.54,7.54,0,0,1,1.34-.35,5.65,5.65,0,0,1,1.3,0,16.55,16.55,0,0,1,2.51.56H415Z"/><path class="cls-102" d="M301.59,277.07c10,5.7,10,14.94.1,20.65s-26,5.7-35.95,0-10-15-.12-20.65S291.61,271.37,301.59,277.07Z"/><g class="cls-103"><path class="cls-104" d="M301.81,266.19c10.09,5.77,10.16,15.14.11,20.9s-26.34,5.78-36.43,0-10.16-15.13-.12-20.91S291.71,260.42,301.81,266.19Z"/></g><g class="cls-105"><path class="cls-106" d="M301.81,272.34c10.09,5.77,10.16,15.12.11,20.9s-26.34,5.78-36.43,0-10.16-15.13-.12-20.9S291.71,266.56,301.81,272.34Z"/></g><path class="cls-107" d="M301.81,259c10.09,5.77,10.16,15.13.11,20.9s-26.34,5.78-36.43,0-10.16-15.13-.12-20.91S291.71,253.21,301.81,259Z"/><path class="cls-108" d="M296.68,276.47a.36.36,0,0,1-.25,0l-18.69-3.13c-.12,0-.21-.08-.21-.15s.1-.12.22-.13l12.51-.68,4.14-6a.36.36,0,0,1,.3-.08c.12,0,.23.07.24.14l1.81,9.85C296.78,276.4,296.78,276.45,296.68,276.47Zm-17.54-3.13,17,2.83-1.65-9-3.77,5.47a.29.29,0,0,1-.21.09Z"/><path class="cls-108" d="M293.49,265.75a.42.42,0,0,1-.27,0L273,261.57l3.7,10.78c0,.08-.07.15-.22.16a.35.35,0,0,1-.33-.13l-3.78-11a.11.11,0,0,1,.08-.13h0a.66.66,0,0,1,.28,0l20.66,4.28c.14,0,.22.11.18.18A.27.27,0,0,1,293.49,265.75Z"/><path class="cls-108" d="M289.25,271.86h-.13l-12.72.66a.37.37,0,0,1-.21,0,.19.19,0,0,1-.12-.1l-3.77-11.1c0-.06,0-.12.14-.15a.5.5,0,0,1,.34.06l16.49,10.43c.07,0,.09.1.06.15Zm-12.68.39,12-.62L273,261.82Z"/><path class="cls-108" d="M289.25,271.86h-.13a.63.63,0,0,1-.27-.06l-16.49-10.44c-.09-.05-.1-.12,0-.17a.37.37,0,0,1,.31-.05l20.81,4.3a.3.3,0,0,1,.16.08.09.09,0,0,1,0,.12l-4.3,6.13A.2.2,0,0,1,289.25,271.86Zm-15.82-10.22L289,271.46l4.06-5.78Z"/><path class="cls-108" d="M296.59,276.51a.49.49,0,0,1-.24,0l-18.68-3.13c-.13,0-.22-.08-.22-.14s.1-.13.22-.14l12.69-.69a.52.52,0,0,1,.27.07l6,3.79a.1.1,0,0,1,0,.14l0,0Zm-17.53-3.13,16.57,2.76-5.32-3.37Z"/><path class="cls-108" d="M296.59,276.51h-.07a.51.51,0,0,1-.32-.05l-6-3.8a.1.1,0,0,1-.05-.14l4.19-6a.33.33,0,0,1,.3-.09.27.27,0,0,1,.25.14l1.8,9.86C296.7,276.44,296.66,276.48,296.59,276.51Zm-5.85-3.91,5.31,3.37-1.62-8.76Z"/><path class="cls-108" d="M289.25,271.86h-.13l-12.64.63a.42.42,0,0,1-.27-.07c-.07,0-.08-.1,0-.15l4.94-5.47a.36.36,0,0,1,.18-.07l12-1.26a.52.52,0,0,1,.28,0c.07.05.1.1.07.16l-4.31,6.14Zm-12.35.35,12-.6,4.07-5.81L281.57,267Z"/><polygon class="cls-109" points="176.45 301.52 240.4 338.72 286.44 312.06 222.48 274.56 176.45 301.52"/><polygon class="cls-109" points="272.37 252.75 330.3 286.34 373.98 261.35 315.36 228.52 272.37 252.75"/><polygon class="cls-110" points="176.45 279.64 240.4 316.83 286.44 290.17 222.48 252.68 176.45 279.64"/><g id="_7Si8S5.tif-4" data-name=" 7Si8S5.tif-4" class="cls-111"><path class="cls-112" d="M200.45,282l-1.45-.68-2.45,1.45-.78-.64.84-.5c.35-.21.38-.34.13-.47l-3.81-1.78a1.28,1.28,0,0,0-1.15.18c-.3.16-.58.34-.89.52l-.93-.43,2.43-1.44L191,277.5l1.19-.72,1.39.65,1-.58-1.39-.65,1.2-.71,1.42.66c.5-.23,1-.46,1.47-.66a4.67,4.67,0,0,1,2.65-.46c.89.17,1.39.6.86,1.31v.05c.3-.11.59-.22.89-.31a3.32,3.32,0,0,1,2-.09,2.62,2.62,0,0,1,.87.47c.57.53.12,1.18-.78,1.88-.39.31-.85.62-1.29.94l1.42.67-1.21.72-1.42-.67-1,.58,1.43.66ZM199.19,280c.48-.29,1-.55,1.4-.83a9.26,9.26,0,0,0,1-.82c.28-.25.36-.5.19-.68s-1-.32-1.95,0a15.82,15.82,0,0,0-2.6,1.39Zm-4.58-2.15,1.79.85c.51-.34,1-.64,1.49-1a3.08,3.08,0,0,0,.58-.56c.19-.24.15-.43-.11-.55a2,2,0,0,0-1.64.12,14.15,14.15,0,0,0-2.11,1.11Z"/></g><g id="_7Si8S5.tif-5" data-name=" 7Si8S5.tif-5"><path class="cls-113" d="M200.88,276.36l-1.45-.68L197,277.13l-.78-.63L197,276c.35-.21.39-.35.13-.46l-3.81-1.79a1.28,1.28,0,0,0-1.15.18l-.89.52-.93-.43,2.43-1.44-1.44-.67,1.19-.71,1.39.65,1-.58-1.39-.66,1.2-.71,1.42.66c.5-.23,1-.46,1.47-.66a4.84,4.84,0,0,1,2.65-.46c.89.17,1.39.6.86,1.31v.05c.3-.1.59-.22.89-.31a3.32,3.32,0,0,1,2-.09,2.85,2.85,0,0,1,.87.48c.57.52.12,1.18-.74,1.87-.4.32-.85.62-1.3.94l1.43.67-1.22.72-1.46-.63-1,.58,1.42.66Zm-1.26-1.92c.48-.29,1-.56,1.4-.84a8.24,8.24,0,0,0,1-.82c.28-.25.36-.49.19-.68s-1-.31-2,0a15.82,15.82,0,0,0-2.6,1.39ZM195,272.29l1.79.84c.51-.33,1-.64,1.49-1a2.56,2.56,0,0,0,.58-.56.32.32,0,0,0-.11-.55,2,2,0,0,0-1.62.11A12.85,12.85,0,0,0,195,272.3Z"/></g><polygon class="cls-114" points="207.63 295.5 218 301.58 259.5 277.27 249.12 271.19 207.63 295.5"/><polygon class="cls-115" points="205.61 293.93 200.24 290.81 241.83 266.89 247.01 269.89 205.61 293.93"/><polygon class="cls-116" points="207.63 293.78 218 299.86 259.5 275.55 249.12 269.47 207.63 293.78"/><polygon class="cls-117" points="205.61 292.21 200.24 289.1 241.83 265.16 247.01 268.17 205.61 292.21"/><polygon class="cls-118" points="207.63 291.63 218 297.7 259.5 273.39 249.12 267.32 207.63 291.63"/><polygon class="cls-119" points="205.61 290.06 200.24 286.95 241.83 263.01 247.01 266.01 205.61 290.06"/><polygon class="cls-120" points="207.63 289.04 218 295.12 259.5 270.81 249.12 264.73 207.63 289.04"/><polygon class="cls-121" points="205.61 287.48 200.24 284.36 241.83 260.42 247.01 263.43 205.61 287.48"/><polygon class="cls-122" points="209.77 261.93 222.68 254.62 235.6 261.93 222.68 269.26 209.77 261.93"/><polygon class="cls-122" points="209.77 259.78 222.68 252.46 235.6 259.78 222.68 267.1 209.77 259.78"/><polygon class="cls-123" points="209.77 257.63 222.68 250.31 235.6 257.63 222.68 264.95 209.77 257.63"/><polygon class="cls-124" points="226.13 306.28 239.04 298.96 251.96 306.28 239.04 313.6 226.13 306.28"/><polygon class="cls-125" points="240.34 297.67 253.25 290.35 266.17 297.67 253.25 304.99 240.34 297.67"/><polygon class="cls-126" points="254.54 289.06 267.46 281.74 280.38 289.06 267.46 296.37 254.54 289.06"/><polygon class="cls-127" points="225.7 303.7 238.61 296.37 251.53 303.7 238.61 311.01 225.7 303.7"/><polygon class="cls-128" points="239.91 295.08 252.82 287.77 265.74 295.08 252.82 302.4 239.91 295.08"/><polygon class="cls-129" points="254.11 286.48 267.03 279.15 279.95 286.48 267.03 293.79 254.11 286.48"/><polygon class="cls-130" points="225.7 300.68 238.61 293.36 251.53 300.68 238.61 308 225.7 300.68"/><polygon class="cls-131" points="239.91 292.07 252.82 284.75 265.74 292.07 252.82 299.39 239.91 292.07"/><polygon class="cls-132" points="254.11 283.46 267.03 276.14 279.95 283.46 267.03 290.78 254.11 283.46"/><path id="_Path_16" data-name=" Path 16" class="cls-6" d="M283.9,311.74a2.1,2.1,0,1,1,2.09,2.1h0A2.09,2.09,0,0,1,283.9,311.74Z"/><path id="_Path_16-2" data-name=" Path 16" class="cls-6" d="M238.56,338.32a2.1,2.1,0,1,1,2.09,2.09h0A2.1,2.1,0,0,1,238.56,338.32Z"/><path id="_Path_17" data-name=" Path 17" class="cls-6" d="M175.24,301.58a2.1,2.1,0,1,1,2.1,2.09h0A2.09,2.09,0,0,1,175.24,301.58Z"/><g id="_Group_21" data-name=" Group 21"><line class="cls-133" x1="330.55" y1="285.19" x2="330.55" y2="284.8"/><line class="cls-134" x1="330.55" y1="283.3" x2="330.6" y2="266"/><line class="cls-133" x1="330.6" y1="265.25" x2="330.6" y2="264.86"/></g><g id="_Group_22" data-name=" Group 22"><line class="cls-133" x1="271.98" y1="252.36" x2="271.98" y2="251.97"/><line class="cls-134" x1="271.98" y1="250.47" x2="272.03" y2="233.17"/><line class="cls-133" x1="272.03" y1="232.42" x2="272.03" y2="232.03"/></g><g id="_Group_23" data-name=" Group 23"><line class="cls-133" x1="240.71" y1="337.56" x2="240.71" y2="337.17"/><line class="cls-134" x1="240.72" y1="335.67" x2="240.76" y2="318.38"/><line class="cls-133" x1="240.76" y1="317.63" x2="240.76" y2="317.24"/></g><g id="_Group_24" data-name=" Group 24"><line class="cls-133" x1="176.61" y1="300.82" x2="176.61" y2="300.43"/><line class="cls-134" x1="176.62" y1="298.93" x2="176.67" y2="281.64"/><line class="cls-133" x1="176.67" y1="280.89" x2="176.67" y2="280.5"/></g><g id="_Group_25" data-name=" Group 25"><line class="cls-133" x1="373.59" y1="260.96" x2="373.59" y2="260.56"/><line class="cls-134" x1="373.6" y1="259.06" x2="373.65" y2="241.77"/><line class="cls-133" x1="373.65" y1="241.02" x2="373.65" y2="240.63"/></g><g id="_Group_26" data-name=" Group 26"><line class="cls-133" x1="286.05" y1="310.98" x2="286.05" y2="310.59"/><line class="cls-134" x1="286.05" y1="309.09" x2="286.1" y2="291.8"/><line class="cls-133" x1="286.1" y1="291.05" x2="286.1" y2="290.66"/></g><path id="_Path_18" data-name=" Path 18" class="cls-6" d="M328.45,286a2.1,2.1,0,1,1,2.1,2.09h0A2.1,2.1,0,0,1,328.45,286Z"/><path id="_Path_19" data-name=" Path 19" class="cls-6" d="M269.83,252.33a2.1,2.1,0,1,1,2.09,2.1h0A2.09,2.09,0,0,1,269.83,252.33Z"/><path id="_Path_20" data-name=" Path 20" class="cls-6" d="M371.88,260.93A2.1,2.1,0,1,1,374,263h0A2.1,2.1,0,0,1,371.88,260.93Z"/><polygon class="cls-122" points="270.2 228.17 330.86 262.94 374.4 237.9 316 202.53 270.2 228.17"/><polygon class="cls-135" points="270.2 224.51 330.86 259.28 374.4 234.24 316 198.86 270.2 224.51"/><polygon class="cls-136" points="270.2 220.85 330.86 255.62 374.4 230.57 316 195.2 270.2 220.85"/><polygon class="cls-137" points="270.2 217.18 330.86 251.95 374.4 226.91 316 191.53 270.2 217.18"/><text class="cls-138" transform="matrix(0.67, -0.39, 0.86, 0.52, 303.89, 223.28)">010011</text><text class="cls-138" transform="matrix(0.67, -0.39, 0.86, 0.52, 315.45, 228.21)">100011</text><text class="cls-138" transform="matrix(0.67, -0.39, 0.86, 0.52, 324.7, 235.17)">010011</text></g></g></svg>